<?xml version="1.0" encoding="UTF-8"?>
<svg version="1.1" xmlns="http://www.w3.org/2000/svg" width="512" height="512">
<path d="M0 0 C120.12 0 240.24 0 364 0 C364 132.33 364 264.66 364 401 C377.2 401 390.4 401 404 401 C404 406.61 404 412.22 404 418 C257.48 418 110.96 418 -40 418 C-40 412.39 -40 406.78 -40 401 C-26.8 401 -13.6 401 0 401 C0 268.67 0 136.34 0 0 Z M17 17 C17 143.72 17 270.44 17 401 C28.55 401 40.1 401 52 401 C52 285.83 52 170.66 52 52 C137.8 52 223.6 52 312 52 C312 167.17 312 282.34 312 401 C323.55 401 335.1 401 347 401 C347 274.28 347 147.56 347 17 C238.1 17 129.2 17 17 17 Z M69 69 C69 178.56 69 288.12 69 401 C103.65 401 138.3 401 174 401 C174 291.44 174 181.88 174 69 C139.35 69 104.7 69 69 69 Z M190 69 C190 178.56 190 288.12 190 401 C224.65 401 259.3 401 295 401 C295 291.44 295 181.88 295 69 C260.35 69 225.7 69 190 69 Z " fill="#000000" transform="translate(74,47)"/>
<path d="M0 0 C5.61 0 11.22 0 17 0 C17 5.61 17 11.22 17 17 C11.39 17 5.78 17 0 17 C0 11.39 0 5.78 0 0 Z " fill="#000000" transform="translate(282,73)"/>
<path d="M0 0 C5.61 0 11.22 0 17 0 C17 5.61 17 11.22 17 17 C11.39 17 5.78 17 0 17 C0 11.39 0 5.78 0 0 Z " fill="#000000" transform="translate(247,73)"/>
<path d="M0 0 C5.61 0 11.22 0 17 0 C17 5.61 17 11.22 17 17 C11.39 17 5.78 17 0 17 C0 11.39 0 5.78 0 0 Z " fill="#000000" transform="translate(213,73)"/>
<path d="M0 0 C5.28 0 10.56 0 16 0 C16 5.61 16 11.22 16 17 C10.72 17 5.44 17 0 17 C0 11.39 0 5.78 0 0 Z " fill="#000000" transform="translate(496,448)"/>
<path d="M0 0 C5.28 0 10.56 0 16 0 C16 5.61 16 11.22 16 17 C10.72 17 5.44 17 0 17 C0 11.39 0 5.78 0 0 Z " fill="#000000" transform="translate(0,448)"/>
<path d="M0 0 C5.61 0 11.22 0 17 0 C17 5.28 17 10.56 17 16 C11.39 16 5.78 16 0 16 C0 10.72 0 5.44 0 0 Z " fill="#000000" transform="translate(395,265)"/>
<path d="M0 0 C5.61 0 11.22 0 17 0 C17 5.28 17 10.56 17 16 C11.39 16 5.78 16 0 16 C0 10.72 0 5.44 0 0 Z " fill="#000000" transform="translate(395,231)"/>
</svg>
