<?xml version="1.0" encoding="UTF-8"?>
<svg version="1.1" viewBox="0 0 1600 1600" width="1280" height="1280" xmlns="http://www.w3.org/2000/svg">
<path transform="translate(0)" d="m0 0h1600v1600h-1600v-1600z" fill="#000100"/>
<path transform="translate(0)" d="m0 0h1600v1600h-1600v-1600zm782 101c-0.472 2.39-0.472 2.39-0.432 5.1-0.0198 1.04-0.0396 2.09-0.06 3.16-0.00639 1.13-0.0128 2.27-0.0194 3.44-0.018 1.18-0.0359 2.36-0.0544 3.58-0.0542 3.8-0.0879 7.6-0.121 11.4-0.0332 2.48-0.0677 4.96-0.104 7.44-0.153 11.5-0.216 22.9-0.212 34.4 1.99e-4 1.11 3.99e-4 2.22 6.04e-4 3.36 5.17e-4 2.72 0.00124 5.43 0.00216 8.15-1.65-5.7e-4 -1.65-5.7e-4 -3.34-0.00115-48.9-0.0168-97.8-0.0322-147-0.0412-0.75-1.38e-4 -1.5-2.76e-4 -2.27-4.18e-4 -16.3-3e-3 -32.7-0.00577-49-0.0083-8.02-0.00125-16-0.00254-24.1-0.00387-1.2-1.96e-4 -1.2-1.96e-4 -2.42-3.96e-4 -23.1-0.00381-46.3-0.01-69.4-0.0184-113-0.0427-113-0.0427-331 0.411-5.21 0.0327-10.4 0.0612-15.6 0.088-6.63 0.0345-13.3 0.0803-19.9 0.135-2.32 0.0181-4.63 0.0331-6.95 0.0448-3.07 0.0163-6.13 0.0448-9.2 0.0769-0.87 0.00206-1.74 0.00412-2.64 0.00625-8.63 0.0934-8.63 0.0934-15.8 4.31-1.02 4.42-1.13 8.69-1.13 13.2-0.00153 0.708-0.00305 1.42-0.00463 2.14-0.0039 2.38-6.83e-4 4.75 0.00249 7.13-0.00135 1.73-0.00313 3.45-0.00531 5.18-0.00474 4.77-0.00322 9.53-7.22e-4 14.3 0.00163 5.18-0.0025 10.4-0.00591 15.5-0.00516 9.08-0.00657 18.2-0.00554 27.2 0.00152 13.5-0.00263 27-0.00787 40.5-0.00968 25.5-0.0125 51-0.0131 76.5-6.47e-5 2.81-1.33e-4 5.63-2.03e-4 8.44-1.7e-5 0.699-3.4e-5 1.4-5.15e-5 2.12-4.08e-4 15.5-0.0026 30.9-0.0051 46.4-0.00103 6.37-0.00202 12.7-0.00302 19.1-1.11e-4 0.704-2.21e-4 1.41-3.35e-4 2.13-0.00632 40.3-0.0104 80.7-0.00999 121 1.58e-5 1.51 3.15e-5 3.02 4.72e-5 4.53 7.34e-5 6.82 1.62e-4 13.6 2.54e-4 20.5 4.11e-5 3.04 8.13e-5 6.08 1.21e-4 9.12 2.04e-5 1.52 4.14e-5 3.04 6.31e-5 4.56 6.8e-4 48.1-0.00664 96.2-0.0205 144-0.0035 12.1-0.00697 24.2-0.0103 36.4-2.03e-4 0.746-4.06e-4 1.49-6.15e-4 2.26-0.00621 23-0.00998 46-0.0112 69-4e-5 0.722-7.99e-5 1.44-1.21e-4 2.19-8.53e-4 15.9-0.00111 31.7-8.3e-4 47.6 9.65e-5 5.67 1.49e-4 11.3 1.79e-4 17 7.91e-6 1.41 1.81e-5 2.82 3.06e-5 4.23 1.76e-4 22.5-0.00552 45-0.0142 67.5-0.00889 23.3-0.0105 46.6-0.00369 69.8 0.0037 13.4 0.00184 26.9-0.00794 40.3-0.00598 8.96-0.00473 17.9 0.00247 26.9 0.0039 5.11 0.00461 10.2-0.00346 15.3-0.00727 4.65-0.00535 9.3 0.00392 13.9 0.00172 1.67 9.11e-5 3.34-0.0053 5.01-0.485 12.5-0.485 12.5 2.26 24.5 6.24 5.86 16.8 4.14 24.8 4.12 1.16 0.00115 2.33 0.00231 3.53 0.0035 3.22 0.00219 6.44-9.4e-5 9.66-0.00428 3.51-0.00345 7.02-0.00106 10.5 5.77e-4 6.14 0.00207 12.3 4.35e-4 18.4-0.00364 9.14-0.00604 18.3-0.00634 27.4-0.00546 15.4 0.00131 30.7-0.00203 46.1-0.00802 15.2-0.00592 30.4-0.00977 45.7-0.0109 0.946-6.87e-5 1.89-1.37e-4 2.87-2.08e-4 4.81-3.38e-4 9.61-6.4e-4 14.4-9.27e-4 34-0.0021 68.1-0.00884 102-0.0183 33.1-0.00918 66.1-0.0163 99.2-0.0205 1.02-1.32e-4 2.04-2.63e-4 3.09-3.99e-4 10.2-0.00132 20.5-0.00259 30.7-0.00384 20.9-0.00254 41.7-0.00536 62.6-0.00835 0.959-1.37e-4 1.92-2.75e-4 2.91-4.16e-4 64-0.0092 128-0.025 192-0.0419 0.576 4.79 1.12 9.52 1.14 14.4 0.00486 0.965 0.00972 1.93 0.0147 2.92 2.96e-4 1.03 5.92e-4 2.06 8.97e-4 3.13 0.00635 1.68 0.00635 1.68 0.0128 3.39 0.013 3.73 0.019 7.46 0.0251 11.2 0.00795 2.68 0.0163 5.36 0.0251 8.04 0.0183 5.76 0.0332 11.5 0.0458 17.3 0.0183 8.33 0.043 16.7 0.0694 25 0.0427 13.5 0.0819 27 0.118 40.6 0.00216 0.808 0.00433 1.62 0.00655 2.45 0.0175 6.56 0.0349 13.1 0.0522 19.7 0.0152 5.75 0.0304 11.5 0.0457 17.2 0.00216 0.81 0.00432 1.62 0.00654 2.45 0.0361 13.5 0.076 27 0.119 40.4 0.0262 8.31 0.0488 16.6 0.067 24.9 0.0126 5.69 0.0287 11.4 0.0476 17.1 0.0108 3.29 0.0194 6.57 0.0247 9.86 6e-3 3.55 0.018 7.11 0.0316 10.7 2.96e-4 1.05 5.92e-4 2.1 8.97e-4 3.18 0.00486 0.944 0.00972 1.89 0.0147 2.86 0.00317 1.23 0.00317 1.23 0.00641 2.49-0.0736 1.87-0.0736 1.87 1.13 2.86 2.45 0.0884 4.87 0.115 7.32 0.0977 0.731-0.00141 1.46-0.00283 2.22-0.00429 2.34-0.00561 4.69-0.0182 7.03-0.0309 1.59-0.00501 3.17-0.00958 4.76-0.0137 3.89-0.011 7.79-0.0283 11.7-0.0488-0.00524-1.1-0.0105-2.21-0.0159-3.34-0.0879-20.4-0.0692-40.9 0.453-61.3 0.0196-0.828 0.0393-1.66 0.0595-2.51 0.0564-2.32 0.12-4.64 0.187-6.97 0.0367-1.31 0.0733-2.63 0.111-3.98 0.205-2.92 0.205-2.92 1.21-3.92 2.59-0.124 5.15-0.183 7.74-0.201 1.24-0.0142 1.24-0.0142 2.5-0.0286 2.8-0.0306 5.6-0.0539 8.4-0.077 2.01-0.0199 4.03-0.0402 6.04-0.0608 5.56-0.055 11.1-0.103 16.7-0.148 3.57-0.0296 7.13-0.0608 10.7-0.0924 58.9-0.518 118-0.592 177-0.655 16.8-0.0179 33.6-0.042 50.4-0.0669 8.28-0.0123 16.6-0.0243 24.8-0.0362 0.827-0.00119 1.65-0.00239 2.51-0.00361 19.4-0.028 38.8-0.0533 58.3-0.0782 0.844-0.00108 1.69-0.00216 2.56-0.00328 18.1-0.0232 36.1-0.0459 54.2-0.0685 8.7-0.0109 17.4-0.0218 26.1-0.0327 1.29-0.00162 1.29-0.00162 2.6-0.00327 19.6-0.0247 39.2-0.0502 58.8-0.0785 1.23-0.00179 1.23-0.00179 2.49-0.00361 8.21-0.0119 16.4-0.024 24.6-0.0363 17.6-0.0263 35.1-0.05 52.7-0.0682 12.7-0.0132 25.5-0.0299 38.2-0.0501 6.89-0.0108 13.8-0.02 20.7-0.0247 6.29-0.00441 12.6-0.0133 18.9-0.0259 2.28-0.00375 4.57-0.0058 6.85-0.00602 3.08-5.36e-4 6.17-0.00711 9.25-0.0153 0.9 0.00131 1.8 0.00262 2.73 0.00397 0.818-0.00342 1.64-0.00685 2.48-0.0104 0.706-8.68e-4 1.41-0.00174 2.14-0.00263 2.09-0.0643 2.09-0.0643 4.86-1.13 1.98-4.43 2.25-8.36 2.25-13.2 0.0028-0.703 0.00561-1.41 0.0085-2.13 0.00697-2.36-3.19e-4 -4.72-0.00751-7.08 0.00209-1.72 0.00505-3.43 0.00881-5.15 0.00782-4.74 0.00311-9.47-0.00356-14.2-0.00506-5.14 0.00144-10.3 0.00649-15.4 0.00724-9.02 7e-3 -18 0.00191-27.1-0.00755-13.4-0.00371-26.8 0.00242-40.3 0.00994-22.6 0.0103-45.2 0.00485-67.7-2.48e-4 -1.03-2.48e-4 -1.03-5.02e-4 -2.08-1.66e-4 -0.689-3.32e-4 -1.38-5.03e-4 -2.09-0.00504-21-0.00635-42-0.00395-62.9 1.55e-4 -1.4 3.09e-4 -2.81 4.63e-4 -4.21 6.21e-4 -5.64 0.00126-11.3 0.00192-16.9 0.00183-15.8 0.00298-31.6 0.00357-47.3 4.09e-5 -1.08 4.09e-5 -1.08 8.27e-5 -2.18 8.19e-4 -22.9-0.00144-45.8-0.00578-68.7-1.4e-4 -0.743-2.81e-4 -1.49-4.26e-4 -2.25-0.00229-12.1-0.00473-24.1-0.00718-36.2-0.00971-47.8-0.00927-95.7 4.61e-4 -143 0.00244-12 0.00486-24.1 0.00714-36.1 1.41e-4 -0.742 2.82e-4 -1.48 4.27e-4 -2.25 0.00431-22.9 0.00614-45.7 0.00527-68.6-2.72e-5 -0.718-5.43e-5 -1.44-8.23e-5 -2.18-6.25e-4 -15.8-0.00189-31.5-0.00374-47.3-6.58e-4 -5.64-0.00128-11.3-0.0019-16.9-1.55e-4 -1.4-3.12e-4 -2.81-4.72e-4 -4.21-0.00239-21-3.57e-4 -41.9 0.0047-62.9 1.66e-4 -0.687 3.31e-4 -1.37 5.02e-4 -2.08 1.65e-4 -0.686 3.31e-4 -1.37 5.01e-4 -2.08 0.00552-23.1 0.00347-46.3-0.00706-69.4-0.00587-13.3-0.00626-26.7 0.00129-40 0.00449-8.92 0.00169-17.8-0.00701-26.7-0.00475-5.08-0.00639-10.2 8.12e-4 -15.2 0.0065-4.63 0.00366-9.25-0.00636-13.9-2e-3 -1.66-7.2e-4 -3.31 0.00441-4.97 0.0239-8.3-0.215-16.5-1.09-24.8-0.0691-0.717-0.138-1.43-0.209-2.17-0.332-2.78-0.686-4.98-2.22-7.34-2.32-1.41-4-1.49-6.72-1.57-1.02-0.0349-2.03-0.0699-3.08-0.106-1.66-0.0331-1.66-0.0331-3.35-0.0668-1.16-0.0331-2.32-0.0663-3.52-0.1-13.2-0.341-26.3-0.352-39.5-0.333-2.77 8.45e-4 -5.54 1.59e-4 -8.31-4.51e-4 -5.97-5.27e-4 -11.9 0.00259-17.9 0.00823-8.88 0.00837-17.8 0.0108-26.6 0.0121-14.9 0.00232-29.9 0.00915-44.8 0.0185-20.4 0.0126-40.8 0.0187-61.2 0.0229-9.51 0.00201-19 0.00433-28.5 0.00674-1.43 3.62e-4 -1.43 3.62e-4 -2.88 7.3e-4 -22.6 0.0058-45.2 0.0148-67.8 0.0242-0.988 4.14e-4 -1.98 8.27e-4 -2.99 0.00125-14 0.00588-28.1 0.0119-42.1 0.018-17.1 0.00737-34.2 0.0147-51.3 0.0218-0.991 4.15e-4 -1.98 8.29e-4 -3 0.00126-22.6 0.00944-45.2 0.018-67.9 0.0237-1.42 3.61e-4 -1.42 3.61e-4 -2.88 7.3e-4 -9.48 0.00238-19 0.00461-28.4 0.00661-20.4 0.00432-40.7 0.0114-61.1 0.024-14.8 0.00916-29.7 0.0149-44.5 0.0171-8.82 0.00142-17.6 0.0057-26.5 0.0139-5.88 0.00523-11.8 0.00689-17.6 0.00557-3.36-6.45e-4 -6.71 8.96e-4 -10.1 0.0057-3.6 0.00492-7.21 0.0038-10.8 0.00105-1.06 0.00291-2.12 0.00583-3.21 0.00883-0.95-0.00199-1.9-0.00398-2.88-0.00603-0.825 3.8e-4 -1.65 7.59e-4 -2.5 0.00115-1.86-0.124-1.86-0.124-2.86-1.12-1.62-13.9-1.13-28.1-1.11-42.1 2.83e-4 -2.6 1.23e-4 -5.21-4.43e-4 -7.81-5.21e-4 -5.57 0.00258-11.1 0.00824-16.7 0.00818-8.06 0.0107-16.1 0.012-24.2 0.00218-13.1 0.00882-26.2 0.0183-39.2 0.0092-12.7 0.0163-25.4 0.0205-38.1 2.63e-4 -0.784 5.25e-4 -1.57 7.96e-4 -2.38 0.00131-3.94 0.00257-7.87 0.00381-11.8 0.0103-32.6 0.0279-65.2 0.0503-97.7-6.07-2.57-11.6-2.33-18.1-2.31-1.79-0.0242-1.79-0.0242-3.61-0.0488l-3.46-0.00195c-1.56-0.00447-1.56-0.00447-3.16-0.00903-3.11 0.438-3.78 0.909-5.65 3.37z" fill="#FBFDFD"/>
<path transform="translate(234 1014)" d="m0 0c5.82 0.00228 11.6 0.00225 17.5 8.56e-4 0.851-2.02e-4 1.7-4.04e-4 2.58-6.13e-4 1.74-4.21e-4 3.47-8.45e-4 5.21-0.00127 17.3-0.00398 34.6-5.45e-4 51.8 0.00564 12.3 0.00437 24.6 0.00689 36.9 0.00799 90 0.00826 180 0.109 432 1.12 1.83 3.92 2.25 7 2.25 11.3 0.00419 1.27 0.00839 2.54 0.0127 3.85-0.00548 1.4-0.0112 2.8-0.017 4.2 0.00107 1.48 0.00301 2.96 0.00575 4.45 0.00484 4.02-0.0028 8.04-0.013 12.1-0.0088 4.22-0.00702 8.43-0.00664 12.6-9.36e-4 7.08-0.00961 14.2-0.0233 21.3-0.0157 8.17-0.021 16.3-0.0203 24.5 6.78e-4 8.72-0.00628 17.4-0.0154 26.2-0.00212 2.5-0.00284 5-0.00324 7.51-0.00101 3.95-0.00717 7.89-0.0172 11.8-0.0029 1.44-0.00416 2.88-0.00357 4.33 4.98e-4 1.98-0.00583 3.96-0.0124 5.95-0.00168 1.11-0.00335 2.21-0.00508 3.35-0.106 2.97-0.332 5.86-0.637 8.81-0.0917 0.896-0.183 1.79-0.278 2.71-0.106 1.02-0.106 1.02-0.214 2.06-63.4 0.0171-127 0.033-190 0.0423-0.937 1.38e-4 -1.87 2.76e-4 -2.84 4.18e-4 -20.4 0.00299-40.7 0.00576-61.1 0.0083-9.99 0.00125-20 0.00254-30 0.00387-0.994 1.31e-4 -1.99 2.62e-4 -3.01 3.96e-4 -32.2 0.00427-64.5 0.0118-96.7 0.021-33.1 0.00942-66.2 0.0156-99.4 0.0176-4.67 2.88e-4 -9.35 6.14e-4 -14 9.62e-4 -0.92 6.74e-5 -1.84 1.35e-4 -2.79 2.04e-4 -14.8 0.00118-29.7 0.00583-44.5 0.0118-14.9 0.00587-29.8 0.00814-44.7 0.00667-8.86-7.64e-4 -17.7 0.00129-26.6 0.0073-5.91 0.00373-11.8 0.00388-17.7 0.00103-3.37-0.00152-6.75-8.61e-4 -10.1 0.00305-3.62 0.00396-7.24 0.00188-10.9-0.00184-1.06 0.00263-2.13 0.00525-3.23 0.00796-1.43-0.00337-1.43-0.00337-2.9-0.00681-0.83 1.56e-4 -1.66 3.12e-4 -2.51 4.73e-4 -1.87-0.125-1.87-0.125-2.87-1.12-0.158-1.63-0.248-3.27-0.311-4.9-0.0411-1.05-0.0822-2.11-0.125-3.19-0.0386-1.16-0.0772-2.32-0.117-3.51-0.042-1.21-0.0841-2.42-0.127-3.66-0.436-13.6-0.485-27.3-0.488-40.9-7.23e-4 -2.14-0.00288-4.28-0.0055-6.42-0.00914-7.5-0.0133-15-0.0125-22.5 6.07e-4 -6.95-0.0101-13.9-0.0257-20.9-0.0131-6.02-0.0184-12-0.0178-18.1 2.54e-4 -3.57-0.00254-7.15-0.0132-10.7-0.0115-3.96-0.00694-7.92-8.95e-4 -11.9-0.00562-1.17-0.0112-2.34-0.017-3.55 0.0398-10.2 0.0398-10.2 2.26-14.8 3.47-1.73 7.49-1.24 11.3-1.31 0.98-0.0205 1.96-0.0409 2.97-0.062 3.31-0.0664 6.63-0.124 9.94-0.18 1.75-0.0314 1.75-0.0314 3.53-0.0635 30.1-0.532 60.2-0.53 90.2-0.517z" fill="#FBFDFD"/>
<path transform="translate(122 415)" d="m0 0c0.953-0.00225 1.91-0.00449 2.89-0.00681 1.06 0.00263 2.11 0.00525 3.2 0.00796 1.12-0.00115 2.24-0.00231 3.39-0.0035 3.8-0.00267 7.6 0.00186 11.4 0.00629 2.73 1.21e-4 5.46-0.00127 8.2-0.00259 5.96-0.00208 11.9-4.22e-4 17.9 0.00364 8.87 0.00602 17.7 0.00634 26.6 0.00546 14.9-0.00132 29.8 0.00203 44.7 0.00802 14.8 0.00591 29.5 0.00976 44.3 0.0109 0.918 6.87e-5 1.84 1.37e-4 2.78 2.08e-4 4.66 3.38e-4 9.32 6.4e-4 14 9.27e-4 33 0.0021 66.1 0.00884 99.1 0.0183 32.1 0.00918 64.2 0.0163 96.3 0.0205 0.989 1.32e-4 1.98 2.63e-4 3 3.99e-4 9.93 0.00132 19.9 0.00259 29.8 0.00384 20.2 0.00254 40.5 0.00536 60.7 0.00835 0.93 1.37e-4 1.86 2.75e-4 2.82 4.16e-4 62.1 0.00921 124 0.0251 186 0.0419 1.57 4.48 2.25 8.03 2.25 12.8 0.00241 0.658 0.00483 1.32 0.00732 1.99 0.00561 2.19-3e-3 4.38-0.0116 6.57 0.00107 1.58 0.00301 3.15 0.00575 4.73 0.00484 4.27-0.00279 8.54-0.013 12.8-0.00879 4.47-0.00702 8.93-0.00664 13.4-9.36e-4 7.49-0.00961 15-0.0233 22.5-0.0158 8.67-0.021 17.3-0.0203 26 6.09e-4 8.34-0.00449 16.7-0.0128 25-0.00354 3.55-0.00536 7.1-0.00589 10.7-1e-3 4.18-0.00708 8.35-0.0172 12.5-0.00293 1.54-0.00415 3.07-0.00357 4.61 4.87e-4 2.09-0.00513 4.18-0.0124 6.26-0.00168 1.17-0.00335 2.34-0.00508 3.55-0.129 2.61-0.129 2.61-1.13 3.61-1.46 0.0971-2.92 0.124-4.39 0.124-1.43 0.00337-1.43 0.00337-2.9 0.00681-1.6-0.00394-1.6-0.00394-3.23-0.00796-1.12 0.00115-2.25 0.00231-3.41 0.0035-3.82 0.00268-7.63-0.00186-11.5-0.00629-2.74-1.21e-4 -5.49 0.00127-8.23 0.00259-5.99 0.00208-12 4.2e-4 -18-0.00364-8.91-0.00602-17.8-0.00634-26.7-0.00546-15 0.00132-30-0.00204-45-0.00802-14.8-0.00591-29.7-0.00976-44.5-0.0109-0.922-6.87e-5 -1.84-1.37e-4 -2.79-2.08e-4 -4.68-3.38e-4 -9.36-6.4e-4 -14-9.27e-4 -33.2-0.0021-66.4-0.00884-99.6-0.0183-32.2-0.00918-64.5-0.0163-96.7-0.0205-0.993-1.32e-4 -1.99-2.63e-4 -3.01-3.99e-4 -9.98-0.00132-20-0.00259-29.9-0.00384-20.3-0.00254-40.6-0.00536-61-0.00835-1.4-2.06e-4 -1.4-2.06e-4 -2.83-4.16e-4 -62.4-0.00921-125-0.0251-187-0.0419-1.7-4-2.25-6.95-2.25-11.3-0.00564-1.27-0.0113-2.55-0.0171-3.86 0.00389-1.4 0.00798-2.81 0.0123-4.21-0.00271-1.48-0.00627-2.97-0.0106-4.45-0.00911-4.03-0.00558-8.05 7.58e-4 -12.1 0.00507-4.22 3.66e-4 -8.44-0.00277-12.7-0.00364-7.09 0.00115-14.2 0.0107-21.3 0.0109-8.18 0.00737-16.4-0.00365-24.5-0.0091-7.03-0.0103-14.1-0.00512-21.1 0.00311-4.2 0.00356-8.39-0.00307-12.6-0.00581-3.95-0.00172-7.9 0.00979-11.8 0.00263-1.44 0.00191-2.89-0.00253-4.33-0.021-7.52 0.0569-14.5 2.27-21.8 2.38-1.19 3.83-1.12 6.49-1.12z" fill="#FBFDFD"/>
<path transform="translate(824 415)" d="m0 0c0.956-0.00674 1.91-0.0135 2.9-0.0204 1.58 0.0118 1.58 0.0118 3.19 0.0239 1.12-0.00346 2.24-0.00692 3.4-0.0105 3.8-0.00801 7.59 0.00557 11.4 0.0189 2.73 3.62e-4 5.47-0.0038 8.2-0.00777 5.96-0.00623 11.9-0.00127 17.9 0.0109 8.87 0.0181 17.7 0.019 26.6 0.0164 14.9-0.00395 29.8 0.0061 44.7 0.0241 14.8 0.0177 29.5 0.0293 44.3 0.0326 0.918 2.06e-4 1.84 4.12e-4 2.78 6.25e-4 4.66 0.00101 9.32 0.00192 14 0.00278 33 0.00631 66 0.0265 99.1 0.0549 32.1 0.0275 64.2 0.0488 96.3 0.0615 0.989 3.95e-4 1.98 7.89e-4 3 0.0012 9.93 0.00396 19.9 0.00778 29.8 0.0115 20.2 0.00761 40.5 0.0161 60.7 0.0251 0.93 4.12e-4 1.86 8.24e-4 2.82 0.00125 62.1 0.0276 124 0.0752 186 0.126 2.23 3.58 2.23 6.5 2.2 10.7-0.00237 0.669-0.00475 1.34-0.0072 2.03-0.0104 2.24-0.0353 4.48-0.0601 6.72-0.0104 1.61-0.02 3.21-0.0287 4.82-0.0262 4.36-0.0648 8.72-0.106 13.1-0.0406 4.56-0.0698 9.12-0.1 13.7-0.0592 8.63-0.129 17.3-0.202 25.9-0.0829 9.83-0.154 19.7-0.225 29.5-0.145 20.2-0.305 40.4-0.474 60.6-63.3 0.0171-127 0.033-190 0.0423-0.936 1.38e-4 -1.87 2.76e-4 -2.84 4.18e-4 -20.3 0.00299-40.7 0.00576-61 0.0083-9.97 0.00125-19.9 0.00254-29.9 0.00387-1.49 1.96e-4 -1.49 1.96e-4 -3.01 3.96e-4 -32.2 0.00426-64.4 0.0118-96.6 0.021-33.1 0.00942-66.1 0.0156-99.2 0.0176-4.67 2.88e-4 -9.33 6.14e-4 -14 9.62e-4 -0.918 6.74e-5 -1.84 1.35e-4 -2.78 2.04e-4 -14.8 0.00118-29.6 0.00583-44.4 0.0118-14.9 0.00587-29.7 0.00814-44.6 0.00667-8.85-7.63e-4 -17.7 0.00129-26.5 0.0073-5.9 0.00373-11.8 0.00388-17.7 0.00103-3.37-0.00152-6.74-8.65e-4 -10.1 0.00305-3.62 0.00396-7.23 0.00188-10.9-0.00184-1.06 0.00263-2.12 0.00525-3.21 0.00796-1.43-0.00337-1.43-0.00337-2.9-0.00681-0.828 1.56e-4 -1.66 3.12e-4 -2.51 4.73e-4 -2-0.125-2-0.125-4-1.12-1.16-6.34-1.15-12.6-1.13-19.1-0.00146-1.11-0.00291-2.23-0.00441-3.37-0.00228-3.75 0.00414-7.49 0.0122-11.2 0.00188-1.3 0.00377-2.6 0.00571-3.94 0.0154-9.88 0.0574-19.8 0.106-29.7 0.0138-2.85 0.0266-5.71 0.0392-8.56 0.0573-12.7 0.137-25.3 0.238-38 0.0335-4.24 0.0603-8.48 0.0814-12.7 0.0257-5.05 0.0659-10.1 0.117-15.1 0.0167-1.88 0.0283-3.76 0.0346-5.65 0.00954-2.59 0.0374-5.17 0.07-7.76-0.00144-0.762-0.00287-1.52-0.00435-2.31 0.092-5.11 0.092-5.11 1.67-7.28 2.27-1.68 3.57-1.68 6.38-1.68z" fill="#FBFDFD"/>
<path transform="translate(824 1015)" d="m0 0c0.954-0.00725 1.91-0.0145 2.89-0.022 1.58 0.011 1.58 0.011 3.19 0.0221 1.12-0.00406 2.24-0.00812 3.39-0.0123 3.79-0.01 7.58 0.00153 11.4 0.0128 2.73-0.00107 5.46-0.00666 8.18-0.012 5.95-0.00932 11.9-0.00742 17.9 0.00173 8.85 0.0136 17.7 0.01 26.5 0.00304 15.8-0.0119 31.6-0.00683 47.4 0.00528 13.8 0.0105 27.7 0.0151 41.5 0.0137 0.916-8.4e-5 1.83-1.68e-4 2.78-2.55e-4 3.72-3.52e-4 7.44-7.36e-4 11.2-0.00117 34.9-0.00397 69.8 0.00877 105 0.0295 31 0.0184 62.1 0.0242 93.1 0.0187 1.99-3.46e-4 3.98-6.93e-4 5.98-0.00104 0.985-1.71e-4 1.97-3.42e-4 2.98-5.18e-4 4.96-8.53e-4 9.92-0.00168 14.9-0.00247 0.978-1.57e-4 1.96-3.14e-4 2.96-4.76e-4 25.9-0.00399 51.8 0.00148 77.7 0.00999 2.79 9.07e-4 5.57 0.00181 8.36 0.00272 1.85 6.01e-4 3.7 0.00121 5.54 0.00183 12.9 0.00423 25.8 0.0048 38.7 0.00289 16.6-0.00244 33.3 0.00159 49.9 0.0172 8.8 0.00807 17.6 0.0106 26.4 0.00536 5.87-0.00296 11.7 0.00128 17.6 0.0115 3.35 0.00566 6.7 7e-3 10.1 0.00183 3.6-0.00505 7.2 2e-3 10.8 0.0123 1.05-0.0044 2.11-0.00879 3.2-0.0133 0.951 0.00526 1.9 0.0105 2.88 0.0159 0.824 3.59e-4 1.65 7.19e-4 2.5 0.00109 1.99 0.251 1.99 0.251 3.99 2.25 0.246 2.82 0.246 2.82 0.241 6.5 0.00256 1.01 0.00256 1.01 0.00518 2.05 0.00331 2.27-0.00773 4.55-0.0186 6.82-5.64e-4 1.63-2.48e-4 3.25 8.85e-4 4.88 5.75e-4 4.42-0.0112 8.85-0.0251 13.3-0.0125 4.62-0.0137 9.24-0.0161 13.9-0.00622 8.75-0.0226 17.5-0.0427 26.3-0.0223 9.96-0.0333 19.9-0.0434 29.9-0.0209 20.5-0.0561 41-0.101 61.5-63.3 0.0343-127 0.0661-190 0.0847-1.4 4.14e-4 -1.4 4.14e-4 -2.84 8.37e-4 -20.3 0.00599-40.7 0.0115-61 0.0166-9.97 0.00249-19.9 0.00509-29.9 0.00773-0.992 2.62e-4 -1.98 5.23e-4 -3.01 7.92e-4 -32.2 0.00853-64.4 0.0236-96.6 0.0419-33.1 0.0188-66.1 0.0312-99.2 0.0352-4.67 5.76e-4 -9.33 0.00123-14 0.00192-1.38 2.02e-4 -1.38 2.02e-4 -2.78 4.09e-4 -14.8 0.00237-29.6 0.0117-44.4 0.0235-14.9 0.0117-29.7 0.0163-44.6 0.0133-8.85-0.00153-17.7 0.00258-26.5 0.0146-5.9 0.00746-11.8 0.00776-17.7 0.00207-3.37-0.00304-6.74-0.00173-10.1 0.0061-3.62 0.00793-7.23 0.00376-10.9-0.00367-1.59 0.00788-1.59 0.00788-3.21 0.0159-1.43-0.00674-1.43-0.00674-2.9-0.0136-0.828 3.12e-4 -1.66 6.24e-4 -2.51 9.45e-4 -2-0.249-2-0.249-4-2.25-1.42-9.45-1.14-19.2-1.08-28.7 0.0046-1.48 0.00883-2.97 0.0127-4.45 0.0131-4.29 0.0339-8.59 0.0554-12.9 0.0147-3.14 0.0266-6.27 0.0378-9.41 0.0488-13.5 0.117-27 0.212-40.5 0.0452-6.5 0.0845-13 0.111-19.5 0.0259-6.39 0.0661-12.8 0.117-19.2 0.0167-2.41 0.0282-4.83 0.0344-7.24 0.00956-3.34 0.0375-6.68 0.07-10-0.00144-0.991-0.00287-1.98-0.00435-3 0.0125-0.904 0.0251-1.81 0.038-2.74 0.00461-0.785 0.00922-1.57 0.014-2.38 0.858-4.54 3.76-5.41 7.99-5.41z" fill="#FBFDFD"/>
<path transform="translate(212 215)" d="m0 0c5.95 0.00207 11.9-6.57e-4 17.8-0.00315 12.9-0.00521 25.8-0.00483 38.6-0.00192 11.3 0.00254 22.6 0.00316 33.9 0.00198 1.13-1.15e-4 1.13-1.15e-4 2.29-2.31e-4 3.07-3.11e-4 6.14-6.3e-4 9.21-9.6e-4 28.7-0.00305 57.4-3.08e-4 86 0.0051 25.3 0.00473 50.6 0.00433 75.9-4.61e-4 28.6-0.00539 57.2-0.00746 85.8-0.00439 3.07 3.21e-4 6.14 6.33e-4 9.21 9.43e-4 1.13 1.19e-4 1.13 1.19e-4 2.29 2.4e-4 10.5 0.00105 21 1.54e-4 31.5-0.00223 111-0.0247 111-0.0247 149 0.55 2.05 0.031 4.09 0.0606 6.14 0.0903 3.58 0.0544 7.16 0.117 10.7 0.184 1.02 0.0163 2.03 0.0326 3.08 0.0494 0.9 0.0195 1.8 0.039 2.73 0.0591 1.16 0.0227 1.16 0.0227 2.34 0.0459 1.74 0.157 1.74 0.157 2.74 1.16 0.161 2.73 0.258 5.45 0.312 8.18 0.0307 1.3 0.0307 1.3 0.0621 2.62 0.0663 2.91 0.124 5.83 0.181 8.74 0.0209 1.01 0.0419 2.03 0.0634 3.07 0.492 24.1 0.536 48.3 0.512 72.4-0.00581 6.08-0.00232 12.2 0.00357 18.3 0.00361 4.76 0.00247 9.53-1.28e-4 14.3-6.61e-4 2.25 1.31e-4 4.49 0.00248 6.74 0.00255 3.11-0.00134 6.22-0.0069 9.33 0.00202 0.902 0.00405 1.8 0.00613 2.73-0.0143 4.33-0.191 8.59-0.643 12.9-0.0917 0.883-0.183 1.77-0.278 2.68-0.0707 0.664-0.141 1.33-0.214 2.01-94.6 0.77-189 1.11-373 1.19-0.695-1.2e-5 -1.39-2.41e-5 -2.11-3.64e-5 -3.52-6.29e-5 -7.03-1.35e-4 -10.5-2.07e-4 -0.697-1.43e-5 -1.39-2.86e-5 -2.11-4.33e-5 -1.41-3.13e-5 -2.82-6.65e-5 -4.23-1.06e-4 -22.3-6e-4 -44.6 0.00713-66.9 0.0206-25.5 0.0153-50.9 0.024-76.4 0.023-2.7-7.46e-5 -5.4-1.23e-4 -8.1-1.54e-4 -0.997-1.75e-5 -0.997-1.75e-5 -2.01-3.53e-5 -9.98-2.87e-5 -20 0.00528-29.9 0.0134-11.2 0.00905-22.5 0.0113-33.7 0.00449-5.71-0.00328-11.4-0.00328-17.1 0.00535-5.22 0.0078-10.4 0.0065-15.6-0.00228-1.89-0.00155-3.78 3.29e-4 -5.67 0.00586-2.56 0.00699-5.11 0.00183-7.67-0.00656-1.12 0.00745-1.12 0.00745-2.25 0.0151-3.7-0.0259-5.26-0.153-8.43-2.26-1.11-3.33-1.13-5.83-1.14-9.34-0.00297-0.646-0.00594-1.29-9e-3 -1.96-0.00868-2.17-0.0102-4.33-0.0117-6.5-0.00463-1.55-0.00965-3.1-0.015-4.66-0.0131-4.22-0.0196-8.44-0.024-12.7-0.00293-2.63-0.00703-5.27-0.0115-7.9-0.0137-8.24-0.0233-16.5-0.0272-24.7-0.00449-9.52-0.0221-19-0.051-28.6-0.0216-7.35-0.0317-14.7-0.033-22.1-0.00105-4.39-7e-3 -8.79-0.0248-13.2-0.0164-4.13-0.0187-8.26-0.00986-12.4 7.73e-4 -1.52-0.00361-3.04-0.0135-4.55-0.0126-2.07-0.00689-4.14 0.00358-6.2-0.00147-1.16-0.00293-2.32-0.00444-3.51 0.372-2.83 0.372-2.83 1.4-4.47 3.09-2.12 6.35-1.83 9.97-1.86 0.821-0.0176 1.64-0.0353 2.49-0.0535 2.76-0.0547 5.52-0.0871 8.28-0.119 1.98-0.0327 3.96-0.0661 5.94-0.1 23.4-0.374 46.9-0.363 70.3-0.351z" fill="#FBFDFD"/>
<path transform="translate(269 815)" d="m0 0c6.92 0.00226 13.8 0.00214 20.8 6.21e-4 1.01-2.21e-4 2.02-4.41e-4 3.06-6.69e-4 2.06-4.58e-4 4.12-9.21e-4 6.18-0.00139 23.6-0.00499 47.2 6.58e-4 70.8 0.00848 7.72 0.00252 15.4 0.00445 23.1 0.00604 1.09 2.25e-4 2.19 4.5e-4 3.32 6.83e-4 1.1 2.25e-4 2.19 4.5e-4 3.32 6.82e-4 210 0.0433 210 0.0433 297 0.398 7.12 0.0287 14.2 0.0502 21.4 0.0687 8.34 0.022 16.7 0.0544 25 0.103 4.06 0.0234 8.13 0.0427 12.2 0.0491 4.23 0.00698 8.46 0.0369 12.7 0.07 1.83-0.00215 1.83-0.00215 3.7-0.00435 1.64 0.0188 1.64 0.0188 3.32 0.038 1.41 0.00691 1.41 0.00691 2.86 0.014 1.1 0.19 1.1 0.19 2.23 0.385 2.41 3.61 2.25 5.22 2.24 9.51 0.00256 0.996 0.00256 0.996 0.00518 2.01 0.0033 2.23-0.00772 4.46-0.0186 6.69-5.64e-4 1.6-2.48e-4 3.19 8.85e-4 4.79 5.75e-4 4.34-0.0112 8.68-0.0251 13-0.0125 4.53-0.0137 9.06-0.0161 13.6-0.00622 8.58-0.0226 17.2-0.0427 25.8-0.0223 9.77-0.0333 19.5-0.0434 29.3-0.0209 20.1-0.0565 40.2-0.101 60.3-18.9 0.761-37.7 1.15-56.6 1.13-2.65 0.00187-5.29 0.00414-7.94 0.00687-5.69 0.00509-11.4 0.00658-17.1 0.00554-8.47-0.00154-16.9 0.00267-25.4 0.00787-16 0.00961-32 0.0125-48 0.0131-12.3 4.61e-4 -24.7 0.00253-37 0.0057-3.56 8.98e-4 -7.13 0.00179-10.7 0.00267-0.886 2.21e-4 -1.77 4.42e-4 -2.69 6.7e-4 -24.9 0.00614-49.7 0.0101-74.6 0.00966-0.935-1.56e-5 -1.87-3.12e-5 -2.83-4.72e-5 -4.74-8.31e-5 -9.48-1.82e-4 -14.2-2.85e-4 -1.41-2.99e-5 -1.41-2.99e-5 -2.85-6.04e-5 -1.9-4.04e-5 -3.81-8.22e-5 -5.71-1.25e-4 -29.7-6.14e-4 -59.4 0.00693-89.1 0.0206-33.4 0.0153-66.8 0.024-100 0.023-3.56-7.46e-5 -7.11-1.23e-4 -10.7-1.54e-4 -0.875-1.17e-5 -1.75-2.33e-5 -2.65-3.53e-5 -14.1-3.08e-5 -28.2 0.00636-42.3 0.015-14.1 0.00845-28.3 0.00948-42.4 0.00289-8.41-0.00371-16.8-0.00182-25.2 0.00794-6.26 0.00666-12.5 0.00298-18.8-0.00487-2.54-0.00155-5.09 3.38e-4 -7.63 0.00586-3.44 0.00697-6.87 0.00184-10.3-0.00656-1.01 0.00497-2.01 0.00994-3.05 0.0151-0.909-0.00475-1.82-0.0095-2.75-0.0144-1.18 1.32e-4 -1.18 1.32e-4 -2.38 2.67e-4 -1.91-0.25-1.91-0.25-3.91-2.25-0.317-2.14-0.317-2.14-0.41-4.91-0.0381-1.07-0.0762-2.15-0.116-3.25-0.0304-1.21-0.0607-2.42-0.092-3.67-0.0563-1.95-0.0563-1.95-0.114-3.95-0.525-19.9-0.419-39.9-0.399-59.9 0.00571-5.88 0.00229-11.8-0.00342-17.6-0.0345-41.3-0.0345-41.3 0.517-58.4 0.0304-1.07 0.0607-2.14 0.092-3.24 0.0381-0.94 0.0762-1.88 0.116-2.85 0.0306-0.788 0.0613-1.58 0.0928-2.39 0.317-1.88 0.317-1.88 2.32-3.88 2.51-0.278 2.51-0.278 5.75-0.317 1.84-0.0292 1.84-0.0292 3.72-0.0589 1.37-0.0115 2.74-0.0227 4.11-0.0337 1.44-0.0185 2.88-0.0377 4.32-0.0577 3.95-0.0518 7.9-0.0904 11.9-0.126 2.52-0.0237 5.03-0.051 7.55-0.0795 38.3-0.434 76.6-0.476 115-0.462z" fill="#FBFDFD"/>
<path transform="translate(1227 815)" d="m0 0c32.6-0.0611 65.3-0.112 97.9-0.143 2.47-0.00234 4.93-0.00468 7.4-0.00703 1.63-0.00155 3.26-0.00309 4.89-0.00462 12.2-0.0115 24.3-0.0304 36.5-0.0528 13.7-0.0252 27.4-0.0398 41.1-0.0398 6.93-2.3e-4 13.9-0.0051 20.8-0.0235 6.29-0.0162 12.6-0.0188 18.9-0.01 2.28 7.45e-4 4.55-0.00366 6.83-0.0135 3.07-0.0125 6.14-0.00694 9.2 0.00359 1.35-0.0121 1.35-0.0121 2.72-0.0244 2.45 0.02 2.45 0.02 6.3 0.392 2.41 3.62 2.25 5.24 2.24 9.55 0.00256 1 0.00256 1 0.00518 2.02 0.0033 2.24-0.00772 4.49-0.0186 6.73-5.64e-4 1.61-2.48e-4 3.21 8.85e-4 4.82 5.75e-4 4.37-0.0112 8.73-0.0251 13.1-0.0125 4.56-0.0137 9.12-0.0161 13.7-0.00622 8.64-0.0226 17.3-0.0427 25.9-0.0223 9.83-0.0333 19.7-0.0434 29.5-0.0209 20.2-0.0564 40.5-0.101 60.7-18.1 0.794-36.2 1.15-54.3 1.13-2.63 0.00187-5.27 0.00414-7.9 0.00687-5.67 0.00509-11.3 0.00658-17 0.00554-8.44-0.00154-16.9 0.00267-25.3 0.00787-15.9 0.00961-31.9 0.0125-47.8 0.0131-12.3 4.61e-4 -24.6 0.00253-36.9 0.0057-3.55 8.98e-4 -7.1 0.00179-10.7 0.00267-0.883 2.21e-4 -1.77 4.42e-4 -2.68 6.7e-4 -24.8 0.00614-49.6 0.0101-74.4 0.00966-0.932-1.56e-5 -1.86-3.12e-5 -2.83-4.72e-5 -4.72-8.31e-5 -9.45-1.82e-4 -14.2-2.85e-4 -1.41-2.99e-5 -1.41-2.99e-5 -2.84-6.04e-5 -1.9-4.04e-5 -3.79-8.22e-5 -5.69-1.25e-4 -29.6-6.14e-4 -59.2 0.00692-88.7 0.0206-33.3 0.0153-66.6 0.024-99.8 0.023-3.54-7.46e-5 -7.09-1.23e-4 -10.6-1.54e-4 -0.873-1.17e-5 -1.75-2.33e-5 -2.64-3.53e-5 -14.1-3.08e-5 -28.1 0.00636-42.2 0.015-14.1 0.00846-28.2 0.00948-42.3 0.00289-8.38-0.0037-16.8-0.00184-25.1 0.00794-6.25 0.00667-12.5 0.00297-18.7-0.00487-2.53-0.00155-5.07 3.26e-4 -7.6 0.00586-3.43 7e-3 -6.86 0.00182-10.3-0.00656-0.996 0.00497-1.99 0.00994-3.02 0.0151-4.57-0.0238-8.29-0.0602-12.4-2.26-1.37-10.7-1.15-21.4-1.12-32.1 0.00188-1.07 0.00377-2.14 0.00571-3.25 0.0156-7.86 0.0515-15.7 0.0932-23.6 0.019-3.6 0.0361-7.19 0.0521-10.8 0.0539-11.9 0.122-23.9 0.213-35.8 0.0426-5.58 0.0805-11.2 0.107-16.7 0.0257-5.33 0.066-10.7 0.117-16 0.0167-2 0.0283-4 0.0346-5.99 0.00955-2.75 0.0374-5.51 0.07-8.26-0.00144-0.813-0.00287-1.63-0.00435-2.46 0.0919-5.45 0.0919-5.45 1.63-7.65 2.44-1.75 4.05-1.67 7.05-1.68 1.09-0.00946 2.19-0.0189 3.32-0.0287 1.81 0.00727 1.81 0.00727 3.67 0.0147 1.28-0.00665 2.57-0.0133 3.89-0.0201 3.58-0.0181 7.17-0.0175 10.7-0.0139 3.88 6.29e-4 7.77-0.016 11.6-0.0305 6.8-0.0229 13.6-0.0347 20.4-0.0391 10-0.00657 20.1-0.03 30.1-0.0569 17.8-0.0471 35.6-0.077 53.4-0.0993 15.5-0.0195 31-0.0445 46.5-0.075 2.07-0.00405 4.13-0.0081 6.2-0.0121 3.11-0.0061 6.22-0.0122 9.33-0.0183 39-0.0766 78.1-0.134 117-0.181 29-0.0347 58-0.0784 86.9-0.133z" fill="#FBFDFD"/>
<path transform="translate(123 616)" d="m0 0c0.954-0.00725 1.91-0.0145 2.89-0.022 1.58 0.011 1.58 0.011 3.19 0.0221 1.12-0.00406 2.24-0.00812 3.39-0.0123 3.79-0.01 7.58 0.00153 11.4 0.0128 2.73-0.00107 5.46-0.00666 8.18-0.012 5.95-0.00932 11.9-0.00742 17.9 0.00173 8.85 0.0136 17.7 0.01 26.5 0.00304 15.8-0.0119 31.6-0.00683 47.4 0.00528 13.8 0.0105 27.7 0.0151 41.5 0.0137 0.916-8.4e-5 1.83-1.68e-4 2.78-2.55e-4 3.72-3.52e-4 7.44-7.36e-4 11.2-0.00117 34.9-0.00397 69.8 0.00877 105 0.0295 31 0.0184 62.1 0.0242 93.1 0.0187 1.99-3.46e-4 3.98-6.93e-4 5.98-0.00104 0.985-1.71e-4 1.97-3.42e-4 2.98-5.18e-4 4.96-8.53e-4 9.92-0.00168 14.9-0.00247 0.978-1.57e-4 1.96-3.14e-4 2.96-4.76e-4 25.9-0.00399 51.8 0.00148 77.7 0.00999 2.79 9.07e-4 5.57 0.00181 8.36 0.00272 1.85 6.01e-4 3.7 0.00121 5.54 0.00183 12.9 0.00423 25.8 0.0048 38.7 0.00289 16.6-0.00244 33.3 0.00159 49.9 0.0172 8.8 0.00807 17.6 0.0106 26.4 0.00536 5.87-0.00296 11.7 0.00128 17.6 0.0115 3.35 0.00566 6.7 7e-3 10.1 0.00183 3.6-0.00505 7.2 2e-3 10.8 0.0123 1.05-0.0044 2.11-0.00879 3.2-0.0133 0.951 0.00526 1.9 0.0105 2.88 0.0159 0.824 3.59e-4 1.65 7.19e-4 2.5 0.00109 1.99 0.251 1.99 0.251 3.99 2.25 0.929 4.11 1.13 8.07 1.13 12.3 0.00282 1.24 0.00564 2.48 0.00854 3.75-0.00194 1.36-0.00399 2.72-0.00613 4.08 0.00136 1.44 0.00314 2.89 0.00531 4.33 0.00455 3.91 0.00279 7.82-3.79e-4 11.7-0.00254 4.1-1.82e-4 8.2 0.00139 12.3 0.00182 6.89-5.75e-4 13.8-0.00534 20.7-0.00543 7.95-0.00369 15.9 0.00183 23.8 0.00455 6.84 0.00517 13.7 0.00256 20.5-0.00155 4.08-0.00178 8.15 0.00154 12.2 0.00291 3.84 8.51e-4 7.68-0.00489 11.5-0.00131 1.4-9.59e-4 2.8 0.00126 4.21 0.00277 1.93-0.00133 3.85-0.00568 5.78-3.77e-4 1.07-7.54e-4 2.15-0.00114 3.26-0.105 2.95-0.332 5.82-0.634 8.75-0.0917 0.896-0.183 1.79-0.278 2.72-0.0707 0.681-0.141 1.36-0.214 2.06-63.3 0.0343-127 0.0661-190 0.0847-0.936 2.76e-4 -1.87 5.52e-4 -2.84 8.37e-4 -20.3 0.00599-40.7 0.0115-61 0.0166-9.97 0.00249-19.9 0.00509-29.9 0.00773-0.992 2.62e-4 -1.98 5.23e-4 -3.01 7.92e-4 -32.2 0.00853-64.4 0.0236-96.6 0.0419-33.1 0.0188-66.1 0.0312-99.2 0.0352-4.67 5.76e-4 -9.33 0.00123-14 0.00192-0.918 1.35e-4 -1.84 2.7e-4 -2.78 4.09e-4 -14.8 0.00237-29.6 0.0117-44.4 0.0235-14.9 0.0118-29.7 0.0163-44.6 0.0133-8.84-0.00153-17.7 0.00258-26.5 0.0146-5.9 0.00747-11.8 0.00775-17.7 0.00207-3.37-0.00304-6.73-0.00174-10.1 0.0061-3.62 0.00794-7.24 0.00375-10.9-0.00367-1.06 0.00525-2.11 0.0105-3.2 0.0159-0.959-0.00449-1.92-0.00899-2.9-0.0136-1.24 4.68e-4 -1.24 4.68e-4 -2.51 9.45e-4 -2.12-0.249-2.12-0.249-5.12-2.25-0.367-2.38-0.367-2.38-0.356-5.42-0.00295-1.16-0.00589-2.31-0.00893-3.51 0.0123-1.28 0.0246-2.56 0.0372-3.89 0.00261-1.37 0.00397-2.74 0.00417-4.11 0.00476-3.76 0.029-7.52 0.0575-11.3 0.022-3.16 0.0343-6.32 0.0467-9.48 0.0341-8.61 0.0921-17.2 0.158-25.8 0.0519-6.86 0.0905-13.7 0.124-20.6 0.0511-10.2 0.121-20.5 0.203-30.7 0.032-4.01 0.0579-8.03 0.0789-12 0.0256-4.76 0.0659-9.51 0.118-14.3 0.0168-1.76 0.0284-3.52 0.0347-5.29 0.00953-2.41 0.0374-4.83 0.0699-7.24-0.00144-0.708-0.00287-1.42-0.00435-2.15 0.0919-4.75 0.0919-4.75 1.67-6.9 2.27-1.7 3.55-1.69 6.37-1.69z" fill="#FBFDFD"/>
<path transform="translate(1222 1215)" d="m0 0c33.3-0.0307 66.6 0.0319 99.9 0.206 5.62 0.0291 11.2 0.0565 16.9 0.0841 10.5 0.052 21.1 0.105 31.6 0.159 12 0.0616 24.1 0.122 36.1 0.181 24.7 0.123 49.3 0.247 74 0.373 1.43 2.86 1.12 5.27 1.12 8.47 8.54e-4 0.671 0.00171 1.34 0.00259 2.03 0.00165 2.26-0.00386 4.52-0.00932 6.78-2.82e-4 1.62-1.24e-4 3.23 4.43e-4 4.85 2.88e-4 4.4-0.00561 8.79-0.0126 13.2-0.00624 4.59-0.00684 9.18-0.00803 13.8-0.00311 8.7-0.0113 17.4-0.0213 26.1-0.0112 9.9-0.0167 19.8-0.0217 29.7-0.0105 20.4-0.0281 40.7-0.0503 61.1-63.3 0.0171-127 0.033-190 0.0423-0.936 1.38e-4 -1.87 2.76e-4 -2.84 4.18e-4 -20.3 0.00299-40.7 0.00576-61 0.0083-9.97 0.00125-19.9 0.00254-29.9 0.00387-1.49 1.96e-4 -1.49 1.96e-4 -3.01 3.96e-4 -32.2 0.00426-64.4 0.0118-96.6 0.021-33.1 0.00942-66.1 0.0156-99.2 0.0176-4.67 2.88e-4 -9.33 6.14e-4 -14 9.62e-4 -0.918 6.74e-5 -1.84 1.35e-4 -2.78 2.04e-4 -14.8 0.00118-29.6 0.00583-44.4 0.0118-14.9 0.00587-29.7 0.00814-44.6 0.00667-8.85-7.63e-4 -17.7 0.00129-26.5 0.0073-5.9 0.00373-11.8 0.00388-17.7 0.00103-3.37-0.00152-6.74-8.65e-4 -10.1 0.00305-3.62 0.00396-7.23 0.00188-10.9-0.00184-1.06 0.00263-2.12 0.00525-3.21 0.00796-1.43-0.00337-1.43-0.00337-2.9-0.00681-0.828 1.56e-4 -1.66 3.12e-4 -2.51 4.73e-4 -2-0.125-2-0.125-4-1.12-1.2-5.71-1.14-11.4-1.13-17.2-0.00146-1.04-0.00291-2.08-0.00441-3.15-0.00229-3.52 0.00417-7.05 0.0122-10.6 0.00188-1.23 0.00377-2.45 0.00571-3.71 0.0167-9.55 0.0585-19.1 0.106-28.6 0.0139-2.87 0.0266-5.74 0.0392-8.6 0.0531-11.9 0.121-23.8 0.213-35.7 0.0426-5.49 0.0805-11 0.107-16.5 0.0257-5.24 0.066-10.5 0.117-15.7 0.0167-1.96 0.0283-3.92 0.0346-5.87 0.00955-2.69 0.0374-5.39 0.07-8.08-0.00144-0.794-0.00287-1.59-0.00435-2.41 0.0912-5.29 0.0912-5.29 1.56-7.51 2.77-1.92 4.97-1.68 8.32-1.68 0.66-0.00515 1.32-0.0103 2-0.0156 2.23-0.0137 4.46-0.00591 6.68 0.00164 1.61-0.00544 3.22-0.0122 4.82-0.0201 4.43-0.0181 8.86-0.0175 13.3-0.0139 4.78 6.22e-4 9.56-0.016 14.3-0.0305 8.3-0.0229 16.6-0.0347 24.9-0.0391 12.1-0.00647 24.1-0.0294 36.2-0.0563 19.6-0.0434 39.3-0.0733 58.9-0.0948 18.9-0.0208 37.9-0.048 56.8-0.084 1.16-0.0022 2.32-0.0044 3.51-0.00666 5.82-0.0111 11.6-0.0223 17.5-0.0335 50.4-0.097 101-0.175 151-0.22 2.27-0.00205 4.54-0.00416 6.82-0.00628z" fill="#FBFDFD"/>
<path transform="translate(832 616)" d="m0 0c1.12-0.00406 2.24-0.00812 3.39-0.0123 3.77-0.01 7.54 0.00151 11.3 0.0128 2.72-0.00107 5.44-0.00666 8.16-0.012 5.93-0.00931 11.9-0.00743 17.8 0.00173 8.82 0.0136 17.6 0.01 26.5 0.00304 15.7-0.0119 31.5-0.00683 47.2 0.00528 13.8 0.0105 27.6 0.0151 41.3 0.0137 0.913-8.4e-5 1.83-1.68e-4 2.77-2.55e-4 3.71-3.52e-4 7.41-7.36e-4 11.1-0.00117 34.8-0.00397 69.6 0.00876 104 0.0295 30.9 0.0184 61.8 0.0242 92.8 0.0187 1.99-3.46e-4 3.97-6.93e-4 5.96-0.00104 1.47-2.56e-4 1.47-2.56e-4 2.97-5.18e-4 4.94-8.53e-4 9.88-0.00168 14.8-0.00247 0.975-1.57e-4 1.95-3.14e-4 2.95-4.76e-4 25.8-0.00399 51.6 0.00148 77.4 0.00999 2.78 9.07e-4 5.55 0.00181 8.33 0.00272 1.84 6.01e-4 3.68 0.00121 5.53 0.00183 12.9 0.00423 25.7 0.0048 38.6 0.00289 16.6-0.00244 33.1 0.00159 49.7 0.0172 8.77 0.00807 17.5 0.0106 26.3 0.00536 5.85-0.00296 11.7 0.00128 17.5 0.0115 3.34 0.00566 6.68 7e-3 10 0.00183 3.59-0.00505 7.17 2e-3 10.8 0.0123 1.05-0.0044 2.1-0.00879 3.18-0.0133 0.948 0.00526 1.9 0.0105 2.87 0.0159 0.821 3.59e-4 1.64 7.19e-4 2.49 0.00109 1.98 0.251 1.98 0.251 3.98 2.25 0.249 2.79 0.249 2.79 0.247 6.42 0.00241 0.667 0.00483 1.33 0.00732 2.02 0.00566 2.24-0.00304 4.49-0.0116 6.73 0.00107 1.6 0.00301 3.21 0.00575 4.81 0.00486 4.37-0.00282 8.73-0.013 13.1-0.00876 4.56-0.00702 9.12-0.00664 13.7-9.37e-4 7.66-0.00963 15.3-0.0233 23-0.0157 8.87-0.021 17.7-0.0203 26.6 6.09e-4 8.51-0.00449 17-0.0128 25.5-0.00354 3.63-0.00536 7.26-0.00589 10.9-1e-3 4.27-0.00708 8.54-0.0172 12.8-0.00293 1.57-0.00415 3.14-0.00357 4.72 4.87e-4 2.14-0.00513 4.27-0.0124 6.41-0.00168 1.2-0.00335 2.4-0.00508 3.63-0.129 2.66-0.129 2.66-1.13 3.66-1.46 0.0979-2.91 0.126-4.37 0.126-0.952 0.00276-1.9 0.00552-2.89 0.00836-1.06-0.00206-2.12-0.00411-3.21-0.00623-1.12 0.00175-2.24 0.00351-3.39 0.00531-3.8 0.0047-7.61 0.00218-11.4-2.34e-4 -2.73 0.00131-5.47 0.00413-8.2 0.00687-5.97 0.00517-11.9 0.00657-17.9 0.00554-8.88-0.00152-17.8 0.00263-26.6 0.00787-16.8 0.00969-33.6 0.0125-50.3 0.0131-13 4.59e-4 -25.9 0.00251-38.9 0.0057-3.72 8.97e-4 -7.45 0.00179-11.2 0.00267-0.925 2.21e-4 -1.85 4.42e-4 -2.8 6.7e-4 -26 0.00616-52.1 0.0101-78.1 0.00966-1.47-2.34e-5 -1.47-2.34e-5 -2.98-4.72e-5 -4.98-8.31e-5 -9.96-1.82e-4 -14.9-2.85e-4 -1.48-2.99e-5 -1.48-2.99e-5 -3-6.04e-5 -2-4.04e-5 -4-8.22e-5 -6-1.25e-4 -31.1-6.13e-4 -62.3 0.0069-93.4 0.0206-34.9 0.0153-69.9 0.024-105 0.023-3.72-7.46e-5 -7.45-1.23e-4 -11.2-1.54e-4 -1.38-1.75e-5 -1.38-1.75e-5 -2.78-3.53e-5 -14.8-3.08e-5 -29.6 0.00637-44.4 0.015-14.8 0.00846-29.7 0.00948-44.5 0.00289-8.83-0.00371-17.7-0.00182-26.5 0.00794-5.89 0.00596-11.8 0.00474-17.7-0.00247-3.36-0.00391-6.72-0.00349-10.1 0.00346-3.61 0.00697-7.22 0.00184-10.8-0.00656-1.06 0.00497-2.12 0.00994-3.21 0.0151-1.43-0.00713-1.43-0.00713-2.89-0.0144-1.24 1.32e-4 -1.24 1.32e-4 -2.51 2.67e-4 -1.99-0.25-1.99-0.25-3.99-2.25-1.32-8.4-1.15-17.1-1.13-25.6-0.00155-1.2-0.00309-2.4-0.00468-3.64-0.00248-3.97 0.00366-7.95 0.0125-11.9 0.00258-1.39 0.00515-2.78 0.00772-4.16 0.017-8.36 0.0491-16.7 0.0868-25.1 0.0272-6.25 0.0412-12.5 0.0524-18.8 0.0163-8.6 0.054-17.2 0.113-25.8 0.032-4.7 0.0559-9.39 0.0597-14.1 0.00419-4.45 0.0322-8.89 0.0783-13.3 0.013-1.65 0.0174-3.3 0.0129-4.95-0.00486-2.26 0.0209-4.52 0.0544-6.78 0.00666-1.27 0.0133-2.54 0.0202-3.85 0.639-3.07 0.639-3.07 2.5-4.74 4.66-1.98 9.03-1.74 14-1.71z" fill="#FBFDFD"/>
</svg>
