<?xml version="1.0" encoding="utf-8"?>
<!-- Generator: Adobe Illustrator 27.5.0, SVG Export Plug-In . SVG Version: 6.00 Build 0)  -->
<svg version="1.1" xmlns="http://www.w3.org/2000/svg" xmlns:xlink="http://www.w3.org/1999/xlink" x="0px" y="0px"
	 viewBox="0 0 500 500" style="enable-background:new 0 0 500 500;" xml:space="preserve">
<g id="BACKGROUND">
	<rect style="fill:#F0F5FC;" width="500" height="500"/>
</g>
<g id="OBJECTS">
	<g>
		<g style="opacity:0.25;">
			<path style="fill:#0F2D59;" d="M175.703,206.33c-4.313-5.067-10.6-7.973-17.251-7.973h-48.741
				c-6.655,0-12.946,2.907-17.259,7.975c-4.314,5.069-6.178,11.745-5.115,18.305l21.898,139.815
				c0.617,3.805,3.861,6.566,7.713,6.566h34.259c3.857,0,7.104-2.762,7.723-6.577l21.887-139.794
				C181.882,218.076,180.018,211.399,175.703,206.33z"/>
			<path style="fill:#0F2D59;" d="M134.082,189.077c14.441,0,26.19-11.752,26.19-26.197c0-14.441-11.749-26.19-26.19-26.19
				c-14.445,0-26.198,11.748-26.198,26.19C107.884,177.325,119.636,189.077,134.082,189.077z"/>
		</g>
		<g>
			<g>
				<path style="fill:#0C76C4;" d="M162.306,196.43c12.771,0,22.506,11.445,20.463,24.055L160.88,360.289
					c-0.462,2.852-2.929,4.948-5.819,4.948h-34.259c-2.89,0-5.349-2.096-5.811-4.948L93.093,220.484
					c-2.042-12.609,7.692-24.055,20.471-24.055H162.306z"/>
				<path style="fill:#0C76C4;" d="M137.935,134.763c13.395,0,24.263,10.867,24.263,24.263c0,13.403-10.867,24.271-24.263,24.271
					c-13.403,0-24.271-10.867-24.271-24.271C113.665,145.63,124.532,134.763,137.935,134.763z"/>
				<path style="fill:#49ABE8;" d="M162.306,196.43h-48.741c-7.073,0-13.209,3.51-16.936,8.78c3.582-3.018,8.214-4.862,13.339-4.862
					h48.742c12.771,0,22.506,11.445,20.463,24.055l-21.889,139.805c-0.036,0.224-0.089,0.44-0.149,0.654
					c1.93-0.725,3.399-2.437,3.746-4.572l21.889-139.805C184.812,207.875,175.077,196.43,162.306,196.43z"/>
				<path style="fill:#49ABE8;" d="M137.935,134.763c-8.039,0-15.162,3.912-19.579,9.931c4.27-3.741,9.859-6.013,15.982-6.013
					c13.395,0,24.263,10.867,24.263,24.263c0,5.366-1.745,10.323-4.694,14.342c5.079-4.449,8.291-10.978,8.291-18.26
					C162.198,145.63,151.331,134.763,137.935,134.763z"/>
			</g>
		</g>
	</g>
	<g>
		<g style="opacity:0.25;">
			<path style="fill:#0F2D59;" d="M384.017,265.085l16.091-26.806c0.067-0.111,0.123-0.23,0.166-0.352
				c2.257-6.412,1.298-13.27-2.629-18.815c-3.926-5.544-10.075-8.723-16.869-8.723c-5.521,0-10.715,2.148-14.629,6.053
				c-1.735,1.739-3.123,3.731-4.13,5.892c-3.296-7.05-10.456-11.945-18.738-11.945c-11.411,0-20.694,9.263-20.694,20.648
				c0,2.323,0.399,4.64,1.187,6.888c0.043,0.123,0.099,0.242,0.166,0.354l16.091,26.806c-7.578,13.098-23.837,46.956-25.083,97.896
				c-0.05,2.142,0.744,4.162,2.236,5.688c1.48,1.515,3.461,2.349,5.579,2.349h78.523c2.123,0,4.108-0.837,5.59-2.357
				c1.489-1.528,2.279-3.546,2.225-5.682C407.854,312.041,391.596,278.183,384.017,265.085z"/>
			<path style="fill:#0F2D59;" d="M342.177,192.207h39.693c3.502,0,6.351-2.846,6.351-6.343V162.88
				c0-7.127-2.814-13.791-7.923-18.764c-5.112-4.976-11.86-7.612-19.005-7.417c0,0,0,0-0.001,0
				c-14.038,0.385-25.458,12.358-25.458,26.69v22.475C335.834,189.361,338.679,192.207,342.177,192.207z"/>
		</g>
		<g>
			<path style="fill:#F7778F;" d="M411.027,359.172c0.085,3.322-2.566,6.066-5.888,6.066h-39.262h-39.262
				c-3.322,0-5.966-2.744-5.888-6.066c1.287-52.649,18.999-87.148,25.396-97.953l-16.679-27.785
				c-0.732-2.089-1.079-4.193-1.079-6.251c0-9.95,8.047-18.721,18.768-18.721c10.351,0,18.744,8.393,18.744,18.744
				c0-5.172,2.096-9.858,5.488-13.257c3.399-3.391,8.085-5.488,13.265-5.488c12.925,0,21.974,12.771,17.681,24.972l-16.679,27.785
				C392.028,272.025,409.74,306.523,411.027,359.172z"/>
			<path style="fill:#F7778F;" d="M390.148,159.027v22.984c0,2.443-1.981,4.416-4.424,4.416h-19.846h-19.847
				c-2.435,0-4.416-1.973-4.416-4.416v-22.475c0-13.226,10.366-24.402,23.585-24.764C378.91,134.402,390.148,145.4,390.148,159.027z
				"/>
			<g>
				<path style="fill:#F9A0B4;" d="M343.536,212.38c10.351,0,21.879,8.576,22.061,16.299c-0.043-1.821,0.216-0.932,0.236-2.694
					c-0.63-9.781-8.76-17.523-18.7-17.523c-6.569,0-12.13,3.296-15.455,8.135C334.864,213.986,338.954,212.38,343.536,212.38z"/>
				<path style="fill:#F9A0B4;" d="M385.631,261.219l16.679-27.785c4.293-12.201-4.755-24.972-17.681-24.972
					c-5.18,0-9.866,2.096-13.264,5.487c-0.672,0.674-1.291,1.4-1.855,2.169c3.038-2.528,7.237-3.738,11.523-3.738
					c12.925,0,21.974,12.771,17.681,24.972l-16.191,24.875c-0.445,0.684-0.469,1.555-0.064,2.264
					c6.89,12.057,23.727,47.675,24.972,98.6c0.016,0.613-0.063,1.206-0.22,1.765c2.283-0.86,3.883-3.093,3.818-5.683
					C409.74,306.523,392.029,272.025,385.631,261.219z"/>
			</g>
			<path style="fill:#F9A0B4;" d="M365.199,134.771c-7.675,0.21-14.384,4.071-18.665,9.857c4.06-3.557,9.291-5.781,15.068-5.939
				c13.711-0.37,24.949,10.629,24.949,24.255v22.984c0,0.142-0.008,0.283-0.022,0.422c2.058-0.378,3.618-2.172,3.618-4.34v-22.983
				C390.148,145.4,378.91,134.401,365.199,134.771z"/>
		</g>
	</g>
	<path style="fill:#0F2D59;" d="M251.904,95.564c-4.07,0-7.37,3.3-7.37,7.37v294.132c0,4.07,3.3,7.37,7.37,7.37
		c4.07,0,7.37-3.3,7.37-7.37V102.934C259.274,98.864,255.975,95.564,251.904,95.564z"/>
</g>
</svg>
