<?xml version="1.0" encoding="UTF-8"?>
<svg version="1.1" xmlns="http://www.w3.org/2000/svg" width="775" height="777">
<path d="M0 0 C255.75 0 511.5 0 775 0 C775 256.41 775 512.82 775 777 C519.25 777 263.5 777 0 777 C0 520.59 0 264.18 0 0 Z " fill="#FEFEFE" transform="translate(0,0)"/>
<path d="M0 0 C0 256.41 0 512.82 0 777 C-369 777 -369 777 -375 774 C-380.26091463 768.60964154 -379.55748362 762.5018944 -379.50057125 755.4220953 C-379.50608542 754.13519459 -379.51159958 752.84829388 -379.51728085 751.52239618 C-379.5320545 747.9409647 -379.52185567 744.35996932 -379.50766886 740.77855143 C-379.4966386 736.88585487 -379.50876971 732.99322005 -379.51797634 729.1005283 C-379.53089963 722.27501598 -379.52890273 715.44963338 -379.51719666 708.62412071 C-379.49983724 698.47456235 -379.50530473 688.32510631 -379.51536357 678.17554271 C-379.5325729 660.05064282 -379.52700378 641.92580333 -379.51200638 623.80090468 C-379.49896677 607.94035985 -379.49375628 592.079836 -379.49632454 576.21928596 C-379.49648495 575.16818682 -379.49664537 574.11708768 -379.49681065 573.03413704 C-379.49747421 568.76764812 -379.49817661 564.50115921 -379.49893599 560.2346703 C-379.50596361 520.19350566 -379.49045653 480.15237796 -379.46431253 440.11122272 C-379.44119496 404.51660107 -379.43580953 368.92202004 -379.44604492 333.32739258 C-379.44864681 324.21283438 -379.45123179 315.09827617 -379.45364285 305.98371792 C-379.45394029 304.86169981 -379.45423774 303.73968171 -379.4545442 302.58366305 C-379.46215432 272.86325157 -379.45575124 243.14284343 -379.44494683 213.42243344 C-379.44379899 210.22556087 -379.44265581 207.0286883 -379.44152 203.83181572 C-379.44076475 201.7109896 -379.43999911 199.59016348 -379.43922299 197.46933737 C-379.43355813 181.61587614 -379.43489901 165.76242542 -379.43945122 149.90896416 C-379.44455205 131.88847842 -379.43873706 113.86803206 -379.41855692 95.84755617 C-379.40754641 85.75498269 -379.40479971 75.66248659 -379.41384545 65.5699107 C-379.41904778 58.83630542 -379.41341194 52.10276662 -379.39879211 45.36917531 C-379.39075363 41.52741614 -379.38752397 37.68581388 -379.39736467 33.84405535 C-379.40782583 29.71325438 -379.39529139 25.58285041 -379.38031673 21.45206356 C-379.38705439 20.24921552 -379.39379204 19.04636749 -379.40073386 17.80706951 C-379.39296708 16.70940674 -379.3852003 15.61174397 -379.37719816 14.48081869 C-379.37677114 13.53582668 -379.37634413 12.59083467 -379.37590417 11.61720654 C-378.74757036 7.24247625 -376.36915645 3.80763037 -373 1 C-255.04661938 -38.31779354 -124.33378016 0 0 0 Z " fill="#FEFEFE" transform="translate(775,0)"/>
<path d="M0 0 C1.55097098 -0.00543771 3.10193679 -0.01256949 4.65289307 -0.02124023 C8.81843458 -0.03928411 12.98357434 -0.03248475 17.14912176 -0.01972389 C21.54002697 -0.00949319 25.93090109 -0.01901752 30.32180786 -0.02526855 C37.69344157 -0.03251751 45.06491426 -0.02303161 52.43652344 -0.00390625 C60.91572145 0.01784099 69.39453428 0.01081564 77.87372291 -0.01121187 C85.19740584 -0.02946425 92.52097396 -0.03187603 99.84467232 -0.0214572 C104.19955052 -0.01527384 108.55424876 -0.01424186 112.90911484 -0.02760315 C117.00850102 -0.03930499 121.10739929 -0.03087989 125.2067337 -0.00802612 C126.69605074 -0.00281371 128.18541009 -0.00412145 129.67470932 -0.01307678 C143.20113781 -0.0868054 157.26159714 1.69044303 169.31689453 8.26757812 C169.97318848 8.61191895 170.62948242 8.95625977 171.30566406 9.31103516 C177.04895081 12.41944952 182.07004974 16.09330864 186.87939453 20.51757812 C187.70826172 21.25492188 188.53712891 21.99226563 189.39111328 22.75195312 C205.40850483 37.76365853 214.47326687 58.72455356 215.87939453 80.51757812 C216.07820289 87.04131679 216.03696194 93.57110836 216.04052734 100.09716797 C216.04516206 102.07914826 216.0501876 104.06112768 216.05557251 106.04310608 C216.06863165 111.40471857 216.07512821 116.76631858 216.07958317 122.12794447 C216.08252315 125.48264322 216.08662957 128.83733862 216.09108734 132.19203568 C216.1047424 142.70308966 216.11441996 153.21413592 216.11828923 163.72519815 C216.12277147 175.8320355 216.14033552 187.93876004 216.16928983 200.0455631 C216.19093666 209.42422094 216.20099504 218.8028471 216.20233035 228.18152964 C216.20337581 233.77429659 216.20922892 239.36695721 216.22714996 244.95969772 C216.24368361 250.22109703 216.2457605 255.48231062 216.23701096 260.74372673 C216.23624354 262.66731834 216.24054409 264.59092016 216.25046921 266.51448631 C216.37905748 293.00250886 216.37905748 293.00250886 208.81689453 301.01757812 C202.3620669 307.48280001 196.31782634 309.6725 187.25439453 309.95507812 C178.53601544 309.62801115 173.05271774 307.43186311 166.64111328 301.48632812 C160.9513514 295.1279246 159.72544591 288.2190923 159.75914001 279.93731689 C159.75785838 278.78675391 159.75785838 278.78675391 159.75655085 277.61294723 C159.75490289 275.04109475 159.76040624 272.46930741 159.76586914 269.89746094 C159.76615119 268.05452984 159.76599294 266.21159863 159.76542664 264.3686676 C159.76513934 259.36285595 159.77102519 254.35706819 159.77800059 249.35126209 C159.78424534 244.12087436 159.78483882 238.8904861 159.786026 233.66009521 C159.789136 223.75437708 159.79734494 213.84866996 159.80737549 203.94295669 C159.81854689 192.66617549 159.82404967 181.38939378 159.82907093 170.11260843 C159.83952781 146.91425889 159.85712087 123.71591912 159.87939453 100.51757812 C155.58939453 100.51757812 151.29939453 100.51757812 146.87939453 100.51757812 C146.88167285 102.09715082 146.88167285 102.09715082 146.8839972 103.70863408 C146.95069006 150.12990631 147.01239878 196.55118176 147.04876709 242.9724884 C147.04931932 243.67556243 147.04987155 244.37863646 147.05044051 245.10301576 C147.06241284 260.38363123 147.07349347 275.66424722 147.08365585 290.94486399 C147.08864509 298.43874733 147.09383132 305.93263053 147.09912109 313.42651367 C147.09964413 314.17223515 147.10016717 314.91795663 147.10070605 315.68627573 C147.1177438 339.84633337 147.14778332 364.00635352 147.18458341 388.16638846 C147.22233941 412.99916763 147.24694225 437.83192606 147.25505449 462.66473345 C147.25620707 466.17421253 147.25750961 469.68369155 147.2589035 473.19317055 C147.25930804 474.22921866 147.25930804 474.22921866 147.25972075 475.28619704 C147.26444301 486.39330599 147.28298275 497.50035074 147.30672267 508.60743353 C147.33030779 519.78061834 147.33893417 530.95374091 147.33340004 542.12695583 C147.33083807 548.17811138 147.33476592 554.22907885 147.35621643 560.28020096 C147.3757256 565.82423125 147.37663597 571.36794752 147.36299011 576.91199247 C147.36130433 578.91356275 147.36634122 580.91515287 147.37892726 582.91668429 C147.46258865 597.04721912 147.20560438 610.64395474 136.87939453 621.51757812 C136.35474609 622.07058594 135.83009766 622.62359375 135.28955078 623.19335938 C127.5875789 630.49664095 117.35210147 632.92083975 106.98486328 632.79492188 C95.7522519 631.79175784 87.15126454 627.33637697 79.62939453 619.14257812 C74.25205816 612.51980962 71.75272242 605.8304046 71.7563467 597.29521465 C71.75435565 596.25765772 71.75236461 595.22010078 71.75031322 594.15110272 C71.75322606 593.01783718 71.75613891 591.88457164 71.75914001 590.71696472 C71.75785838 588.90358462 71.75785838 588.90358462 71.75655085 587.05357057 C71.75518853 583.70138125 71.75831381 580.34925031 71.76332891 576.99706805 C71.76764723 573.38089857 71.766186 569.7647309 71.76542664 566.14855957 C71.76490228 559.88441223 71.76803988 553.62027532 71.77366447 547.3561306 C71.78179139 538.29922848 71.78439592 529.2423314 71.78565247 520.18542603 C71.78784111 505.4912089 71.79449611 490.79699732 71.80395508 476.1027832 C71.81313404 461.82869494 71.82021251 447.55460819 71.82446289 433.28051758 C71.82472561 432.4006675 71.82498834 431.52081742 71.82525902 430.61430522 C71.82656406 426.20035738 71.82782777 421.78640953 71.82907093 417.37246168 C71.83943769 380.7541632 71.85712525 344.13587119 71.87939453 307.51757812 C67.58939453 307.51757812 63.29939453 307.51757812 58.87939453 307.51757812 C58.88123812 309.00809629 58.8830817 310.49861446 58.88498116 312.03429985 C58.92831332 347.43018263 58.96128381 382.82606171 58.98152519 418.22196548 C58.98402655 422.5802687 58.9866152 426.93857187 58.98925781 431.296875 C58.98978243 432.16452079 58.99030705 433.03216659 58.99084757 433.92610468 C58.99954599 447.96788646 59.01531287 462.00965184 59.03370012 476.05142389 C59.05241483 490.46364931 59.06351458 504.87586615 59.06757152 519.28810322 C59.07031332 528.17848462 59.07896764 537.06881963 59.09522747 545.95918675 C59.10581372 552.0587875 59.10899144 558.15836433 59.10639729 564.2579736 C59.10511855 567.77510703 59.10705449 571.29215951 59.11780548 574.80927849 C59.12777203 578.62876583 59.12535696 582.44805558 59.11990356 586.26754761 C59.12572925 587.37068515 59.13155493 588.47382269 59.13755715 589.61038864 C59.09057308 601.80540172 57.13139667 612.61226078 48.69189453 621.85351562 C40.23888233 629.61425527 28.86415839 633.28731216 17.44970703 632.86523438 C6.25120452 631.35054331 -2.7051505 626.21432128 -9.80419922 617.50976562 C-14.98885286 609.66355388 -16.27432108 601.30488572 -16.2436533 592.09365368 C-16.24480714 591.24369761 -16.24596099 590.39374155 -16.2471498 589.51802924 C-16.24980639 586.65679061 -16.24530213 583.79560773 -16.24085999 580.93437195 C-16.24129588 578.86765635 -16.24217113 576.80094082 -16.24344915 574.73422557 C-16.24569048 569.04472839 -16.24167774 563.35524995 -16.23667109 557.66575515 C-16.23236161 551.53422475 -16.23381337 545.40269544 -16.23457336 539.27116394 C-16.23509828 528.64442853 -16.23198966 518.01769986 -16.22633553 507.39096642 C-16.22042015 496.24470681 -16.21656991 485.09844965 -16.21548271 473.95218849 C-16.21541397 473.2593588 -16.21534523 472.56652911 -16.21527441 471.85270458 C-16.21493608 468.33422692 -16.2146347 464.81574925 -16.21434753 461.29727159 C-16.21224667 436.37062406 -16.20550804 411.44397972 -16.19604492 386.51733398 C-16.18686177 362.30021176 -16.17977753 338.08309041 -16.17553711 313.8659668 C-16.17540558 313.11959647 -16.17527406 312.37322615 -16.17513855 311.60423854 C-16.17382003 304.10893668 -16.17254422 296.61363482 -16.17129969 289.11833295 C-16.16876342 273.84929976 -16.16594216 258.58026663 -16.16294861 243.31123352 C-16.16274267 242.2581465 -16.16274267 242.2581465 -16.16253258 241.183785 C-16.15333065 194.29504802 -16.13746451 147.40631291 -16.12060547 100.51757812 C-20.41060547 100.51757812 -24.70060547 100.51757812 -29.12060547 100.51757812 C-29.11784009 101.44964962 -29.11507471 102.38172112 -29.11222553 103.3420372 C-29.04553607 126.05351775 -28.99628513 148.76498554 -28.96516895 171.47654343 C-28.94972026 182.45982093 -28.928669 193.44303363 -28.89428711 204.42626953 C-28.86432353 214.00267528 -28.84501595 223.57903407 -28.83833998 233.15548539 C-28.83443951 238.22303726 -28.82531462 243.29045485 -28.8034153 248.35796356 C-28.78294011 253.13496595 -28.77679384 257.91177969 -28.78128242 262.68882179 C-28.78046214 264.43502899 -28.77456257 266.18124299 -28.76298904 267.92741203 C-28.60538118 292.94976382 -28.60538118 292.94976382 -36.12060547 301.01757812 C-42.32663294 307.26377405 -49.0287407 309.62636954 -57.74560547 309.95507812 C-66.19632956 309.5704079 -72.21216331 307.244681 -78.39404297 301.41992188 C-84.36496003 294.84110602 -85.26969784 288.47281567 -85.26777649 279.86810303 C-85.27329152 278.54458844 -85.27329152 278.54458844 -85.27891797 277.19433618 C-85.2899493 274.2314396 -85.29379782 271.2685781 -85.29760742 268.30566406 C-85.30387279 266.18327727 -85.31051965 264.06089157 -85.31752014 261.93850708 C-85.33856483 254.95966353 -85.34892705 247.98081977 -85.35888672 241.00195312 C-85.36293497 238.59643797 -85.36705191 236.19092294 -85.3712368 233.78540802 C-85.39029412 222.47662688 -85.40452062 211.16785226 -85.41284877 199.85905814 C-85.42260538 186.82678459 -85.4488815 173.7946816 -85.48934966 160.7624681 C-85.51958294 150.67814296 -85.53432472 140.59386648 -85.53762978 130.50949693 C-85.53997322 124.49282403 -85.54884066 118.47633323 -85.57409096 112.45970917 C-85.59750108 106.78959873 -85.60155311 101.11978856 -85.59132957 95.44964218 C-85.59083714 93.37937543 -85.59707026 91.30909324 -85.61088562 89.23887253 C-85.70553073 74.20295993 -84.72235886 59.81119091 -77.43310547 46.26757812 C-77.09279297 45.61337891 -76.75248047 44.95917969 -76.40185547 44.28515625 C-72.95095114 37.85392545 -68.83206516 32.09936075 -64.12060547 26.51757812 C-63.50830078 25.79183594 -62.89599609 25.06609375 -62.26513672 24.31835938 C-46.33447699 7.02900799 -22.83103509 -0.13687417 0 0 Z " fill="#282828" transform="translate(559.12060546875,143.482421875)"/>
<path d="M0 0 C2.38500628 -0.00270152 4.77001148 -0.00658939 7.15501404 -0.01159668 C12.12810867 -0.01745951 17.1009139 -0.00903219 22.07397461 0.00976562 C28.41042118 0.03256519 34.74619018 0.01940439 41.08261204 -0.00452423 C45.99949644 -0.01905876 50.91622327 -0.01434144 55.83311272 -0.00401306 C58.16801982 -0.00136754 60.50294179 -0.00453781 62.8378315 -0.01393127 C78.72430179 -0.06384291 93.05668999 0.64185626 107.37109375 8.28125 C108.36411499 8.79667358 108.36411499 8.79667358 109.37719727 9.32250977 C124.1104563 17.16702782 135.65620472 28.11162302 144.12109375 42.53125 C144.61947754 43.35826416 145.11786133 44.18527832 145.63134766 45.03735352 C152.33608121 57.204308 155.71905415 70.70431426 159.61677933 83.95999527 C160.68712919 87.58912564 161.77255659 91.21373731 162.85717773 94.83862305 C164.22005272 99.39601523 165.58192597 103.95369042 166.93791199 108.51313782 C170.15519858 119.3284896 173.41698238 130.12963578 176.7109375 140.921875 C176.93957552 141.67107145 177.16821354 142.42026791 177.40377998 143.19216728 C178.54573562 146.93344232 179.68835646 150.6745138 180.83126831 154.41549683 C187.27273778 175.50336232 193.68964518 196.59828718 199.92797852 217.74731445 C200.11943451 218.39592438 200.3108905 219.0445343 200.50814819 219.71279907 C201.0405366 221.51922677 201.57049173 223.32637106 202.1003418 225.13354492 C202.79511611 227.4461912 203.51644019 229.75098987 204.26098633 232.0480957 C207.56257207 242.25851468 209.70548319 252.86823051 205.12109375 263.09375 C201.21424821 269.63083802 195.59865772 274.80652799 188.24609375 277.08984375 C181.00223006 278.59454338 175.11952456 277.96723281 168.65365601 274.24542236 C160.91092619 269.00473245 156.90993479 262.14097884 154.33203125 253.359375 C153.85278702 251.8307785 153.85278702 251.8307785 153.36386108 250.27130127 C152.25500084 246.69922473 151.18661912 243.11648321 150.12109375 239.53125 C149.70292038 238.14357826 149.28399057 236.75613428 148.86437988 235.36889648 C145.69941496 224.89883072 142.60273109 214.40914872 139.52014923 203.9145813 C137.41025727 196.73674371 135.29048749 189.5618106 133.17231369 182.38641357 C132.63825373 180.57701481 132.10436135 178.76756657 131.57063675 176.95806885 C127.95385974 164.6963797 124.308076 152.44388792 120.62109375 140.203125 C120.40935894 139.49981804 120.19762413 138.79651108 119.97947311 138.07189178 C117.81854888 130.89476679 115.65171955 123.7194636 113.47900391 116.54589844 C112.78931409 114.25978793 112.09969384 111.97365643 111.41015625 109.6875 C111.10295654 108.67870789 110.79575684 107.66991577 110.47924805 106.6305542 C108.77403887 100.96682371 107.33079467 95.32175446 106.12109375 89.53125 C101.50109375 89.53125 96.88109375 89.53125 92.12109375 89.53125 C92.82733887 91.94280396 92.82733887 91.94280396 93.54785156 94.40307617 C102.79874561 125.99702059 112.02500113 157.59791438 121.18359375 189.21875 C121.39151928 189.93659794 121.59944481 190.65444588 121.81367111 191.39404678 C123.70221452 197.91417887 125.59050144 204.43438521 127.47853088 210.95466614 C131.6248335 225.273424 135.77751602 239.59032605 139.93359375 253.90625 C140.28901245 255.13051697 140.64443115 256.35478394 141.01062012 257.6161499 C147.55252134 280.14752037 154.10704507 302.67521738 160.664608 325.202034 C161.42470145 327.81320206 162.18472335 330.42439094 162.94473267 333.0355835 C164.14832958 337.17070898 165.35220502 341.30575328 166.55628967 345.44073677 C166.99783253 346.95715738 167.4393035 348.47359893 167.88069153 349.99006462 C168.29483426 351.41286168 168.70913733 352.83561207 169.12360954 354.25831318 C169.52191656 355.62623555 169.91960185 356.99433913 170.31662178 358.36263561 C171.36969205 361.98509088 172.44158521 365.60089998 173.53622437 369.21102905 C173.7685612 369.98323131 174.00089804 370.75543356 174.24027538 371.55103588 C174.68632698 373.03160896 175.1366997 374.51088949 175.59209919 375.98861408 C176.60472642 379.36247437 177.12109375 381.96935952 177.12109375 385.53125 C151.05109375 385.53125 124.98109375 385.53125 98.12109375 385.53125 C98.13156738 392.14857178 98.14204102 398.76589355 98.15283203 405.58374023 C98.18594702 427.42857188 98.20815539 449.27340449 98.22471809 471.11825466 C98.23502871 484.36490089 98.249085 497.61152333 98.27197266 510.8581543 C98.29191304 522.40450416 98.30481175 533.9508368 98.30927074 545.49720341 C98.311877 551.61034946 98.31799852 557.72344622 98.33255386 563.83657646 C98.34614794 569.59272373 98.35031267 575.3488015 98.34730911 581.1049633 C98.34785845 583.21524941 98.35182497 585.32553789 98.3595047 587.43581009 C98.36949446 590.32292761 98.3670479 593.20978468 98.36160278 596.09690857 C98.36742847 596.92670162 98.37325415 597.75649467 98.37925637 598.61143297 C98.33064585 608.18518293 96.59034301 616.22415742 90.12109375 623.53125 C82.24333745 630.12658086 74.84536376 632.00869098 64.66796875 631.84765625 C56.95049428 631.15920313 50.49591638 628.15606438 45.12109375 622.53125 C40.52634271 615.45183739 38.9727242 609.99351483 39.00083923 601.5526886 C38.9995576 600.15839411 38.9995576 600.15839411 38.99825007 598.73593205 C38.99659746 595.60819642 39.0021131 592.48051393 39.00756836 589.3527832 C39.0078503 587.11591595 39.00769235 584.8790486 39.00712585 582.6421814 C39.00683816 576.55783428 39.01273033 570.47350676 39.01969981 564.38916421 C39.02593806 558.03501245 39.02653752 551.68086028 39.02772522 545.32670593 C39.03048326 534.65782287 39.03673554 523.98894758 39.0456543 513.32006836 C39.05483161 502.33048539 39.06191088 491.34090438 39.06616211 480.35131836 C39.06642483 479.67405853 39.06668756 478.99679871 39.06695824 478.29901586 C39.06826327 474.9014436 39.06952698 471.50387133 39.07077014 468.10629904 C39.08113891 439.91461084 39.09902885 411.72293125 39.12109375 383.53125 C33.18109375 383.53125 27.24109375 383.53125 21.12109375 383.53125 C21.1310865 387.71070534 21.1310865 387.71070534 21.14128113 391.97459412 C21.20257542 418.2106675 21.24722663 444.44673146 21.27653027 470.68286037 C21.27958978 473.3685704 21.28271374 476.05428034 21.28588867 478.73999023 C21.2866756 479.40752715 21.28746253 480.07506406 21.28827331 480.76282937 C21.30131657 491.5623405 21.32496444 502.36180358 21.35255214 513.16128623 C21.38063643 524.24787633 21.39705194 535.33444687 21.40335923 546.42107159 C21.40726891 552.64602658 21.41645283 558.87087269 21.43828392 565.09579277 C21.45867264 570.95702152 21.46492265 576.81809669 21.46041679 582.67935753 C21.46124092 584.82834966 21.46719223 586.97734702 21.47871017 589.12630844 C21.49369146 592.06607723 21.49002667 595.00527029 21.4818573 597.9450531 C21.49059582 598.79040995 21.49933435 599.63576679 21.50833768 600.50674051 C21.44719589 608.67720598 19.37676777 616.13921403 14.12109375 622.53125 C5.94984323 629.9563507 -1.405179 632.13415544 -12.3984375 631.88671875 C-19.31868559 631.17993696 -26.0347489 628.6445272 -30.87890625 623.53125 C-36.32063604 615.55538134 -38.03177769 610.17540531 -37.99916077 600.54632568 C-38.00001519 599.62819226 -38.00086962 598.71005883 -38.00174993 597.76410317 C-38.0033999 594.68093188 -37.99789123 591.59781474 -37.99243164 588.51464844 C-37.99214964 586.30718995 -37.99230776 584.09973138 -37.99287415 581.89227295 C-37.99316161 575.89269297 -37.98727303 569.89313289 -37.98030019 563.89355755 C-37.97405825 557.6261626 -37.97346218 551.35876721 -37.97227478 545.09136963 C-37.96951762 534.56969887 -37.96326706 524.04803429 -37.9543457 513.52636719 C-37.94516633 502.68912798 -37.93808806 491.85189075 -37.93383789 481.01464844 C-37.93357517 480.34661232 -37.93331244 479.67857621 -37.93304176 478.99029657 C-37.93173672 475.63894716 -37.93047301 472.28759774 -37.92922986 468.9362483 C-37.91877109 441.13457593 -37.90042867 413.33291616 -37.87890625 385.53125 C-64.27890625 385.53125 -90.67890625 385.53125 -117.87890625 385.53125 C-115.62911689 374.28230322 -115.62911689 374.28230322 -114.14916992 369.22045898 C-113.81581131 368.07235748 -113.4824527 366.92425598 -113.13899231 365.74136353 C-112.7785936 364.515737 -112.41819489 363.29011047 -112.046875 362.02734375 C-111.65920719 360.69732973 -111.27194577 359.3671972 -110.88505554 358.03695679 C-110.05383606 355.18164149 -109.22013727 352.32706687 -108.38446045 349.47305298 C-107.03652127 344.86899041 -105.69461998 340.26318197 -104.35400391 335.65698242 C-104.12546093 334.87176492 -103.89691795 334.08654741 -103.66144943 333.27753544 C-103.19490193 331.67453119 -102.72837604 330.07152066 -102.26187134 328.46850395 C-101.54930322 326.02056549 -100.8362209 323.57277726 -100.12304688 321.12501526 C-95.50783062 305.28042032 -90.94495591 289.42094271 -86.39008713 273.55891418 C-84.43456266 266.74983217 -82.47717077 259.94128668 -80.51953125 253.1328125 C-80.29732344 252.35996414 -80.07511562 251.58711578 -79.84617424 250.79084778 C-72.6439162 225.74387013 -65.40355773 200.7078716 -58.16577148 175.67114258 C-57.08444127 171.93051037 -56.00314786 168.18986753 -54.921875 164.44921875 C-54.65945448 163.54141726 -54.39703396 162.63361576 -54.1266613 161.69830513 C-50.90995975 150.56994018 -47.69850518 139.4400916 -44.497612 128.30716896 C-43.59235722 125.15885812 -42.68647923 122.01072657 -41.78076172 118.86254883 C-40.51073153 114.44762856 -39.24315066 110.03201557 -37.97705078 105.6159668 C-37.43270783 103.72311846 -36.88828077 101.83029431 -36.34375 99.9375 C-36.10344559 99.09645218 -35.86314117 98.25540436 -35.61555481 97.38887024 C-33.99261218 91.75866186 -33.99261218 91.75866186 -32.87890625 89.53125 C-37.16890625 89.86125 -41.45890625 90.19125 -45.87890625 90.53125 C-46.4301416 92.38540527 -46.98137695 94.23956055 -47.54931641 96.14990234 C-47.91957443 97.39530792 -48.28983246 98.6407135 -48.67131042 99.92385864 C-49.52005738 102.77873067 -50.36877823 105.63361046 -51.21748352 108.48849487 C-53.38719287 115.78690646 -55.55706588 123.08526924 -57.72759151 130.38343811 C-59.00078594 134.66444986 -60.27385999 138.9454974 -61.546875 143.2265625 C-61.80579844 144.09729904 -62.06472187 144.96803558 -62.33149147 145.86515808 C-65.97369029 158.11435535 -69.60998977 170.36528947 -73.24184418 182.61755753 C-74.72003278 187.60343241 -76.19937713 192.58896452 -77.67876434 197.57448387 C-78.85442052 201.53683756 -80.02927319 205.49942569 -81.20220947 209.46258545 C-83.52177054 217.29876669 -85.84853628 225.13261685 -88.20439148 232.95797539 C-89.1078434 235.95895153 -90.00588416 238.96129875 -90.89337158 241.96704102 C-91.79236489 245.00854981 -92.70968142 248.04387108 -93.6328125 251.078125 C-93.87789047 251.92296448 -94.12296844 252.76780396 -94.37547302 253.63824463 C-97.25232388 262.92232765 -102.27360757 270.69791336 -110.87890625 275.53125 C-116.9492635 278.22364665 -123.49790026 278.02222219 -129.87890625 276.53125 C-137.50310562 273.45963011 -142.20650106 268.82469808 -145.87890625 261.53125 C-150.1304882 250.90229513 -147.26009764 241.01659359 -144.0234375 230.51953125 C-143.6136025 229.15474201 -143.20492318 227.78960527 -142.7973175 226.42414856 C-141.72268392 222.83740754 -140.63108708 219.25607027 -139.53455353 215.67597198 C-138.68801754 212.90682399 -137.84993387 210.13515598 -137.01208401 207.36336994 C-134.4507098 198.89172629 -131.85665822 190.4302316 -129.25764847 181.9700737 C-127.33446779 175.70641946 -125.41743896 169.44087678 -123.49950218 163.17561531 C-123.00760664 161.5688247 -122.51563402 159.96205768 -122.02358437 158.35531425 C-116.62833105 140.73691163 -111.27912825 123.10465504 -105.94140625 105.46875 C-105.73472195 104.78588802 -105.52803764 104.10302605 -105.31509018 103.39947128 C-104.10542948 99.40283452 -104.10542948 99.40283452 -102.89606571 95.4061079 C-101.947787 92.27193837 -100.99854957 89.1380647 -100.04786682 86.00462341 C-98.31516027 80.29201635 -96.59271525 74.57687017 -94.89746094 68.85302734 C-94.58522079 67.80659561 -94.27298065 66.76016388 -93.95127869 65.68202209 C-93.37779041 63.75913472 -92.80909413 61.8348075 -92.24659729 59.90867615 C-88.38724079 47.02304935 -81.96577968 36.48353994 -72.87890625 26.53125 C-72.22019531 25.80292969 -71.56148438 25.07460937 -70.8828125 24.32421875 C-51.2087903 3.62097205 -27.0990999 -0.10913181 0 0 Z " fill="#282828" transform="translate(147.87890625,142.46875)"/>
<path d="M0 0 C3.35286458 0.03255208 6.70572917 0.06510417 10.05859375 0.09765625 C7.55580675 10.36122712 4.85952816 20.53901167 1.890625 30.6796875 C1.49465489 32.04060382 1.09897261 33.40160391 0.70355225 34.76268005 C-0.13483829 37.64659651 -0.97498931 40.52999132 -1.81661987 43.41296387 C-3.15903179 48.01168216 -4.49705593 52.61166997 -5.83422852 57.21191406 C-6.29130379 58.78427175 -6.74838082 60.35662893 -7.20545959 61.9289856 C-7.4323604 62.70955448 -7.65926121 63.49012337 -7.8930378 64.29434586 C-8.583266 66.66830928 -9.27387314 69.04216217 -9.96458435 71.41598511 C-14.12608948 85.71981575 -18.25806745 100.03205463 -22.37890625 114.34765625 C-23.06769976 116.73942304 -23.75650193 119.13118734 -24.4453125 121.52294922 C-28.05176991 134.04806699 -31.65374974 146.57447048 -35.25443077 159.10124969 C-37.21231675 165.91263023 -39.17049563 172.72392654 -41.12890625 179.53515625 C-41.34502438 180.28680809 -41.5611425 181.03845993 -41.78380966 181.8128891 C-48.98372424 206.85272039 -56.20770867 231.88554384 -63.45068741 256.91295242 C-64.18891491 259.46404693 -64.9269245 262.0152044 -65.66488647 264.56637573 C-66.81811541 268.55290014 -67.97201948 272.5392285 -69.12649345 276.52539253 C-69.55133809 277.9925738 -69.97598997 279.45981089 -70.40043831 280.92710686 C-70.9802449 282.93122839 -71.5608155 284.93512698 -72.14160156 286.93896484 C-72.46686829 288.06225189 -72.79213501 289.18553894 -73.1272583 290.34286499 C-73.69730833 292.27171444 -74.3053703 294.18954841 -74.94140625 296.09765625 C-48.54140625 296.09765625 -22.14140625 296.09765625 5.05859375 296.09765625 C5.06793945 302.83091309 5.07728516 309.56416992 5.08691406 316.50146484 C5.12066202 338.73351724 5.1759977 360.96547703 5.24249649 383.19745445 C5.25044783 385.88212436 5.25831417 388.56679449 5.26611328 391.25146484 C5.26805465 391.91873945 5.26999603 392.58601405 5.27199623 393.2735091 C5.3029839 404.06584768 5.31998783 414.85816501 5.33178797 425.65053968 C5.34421633 436.73154651 5.37205152 447.81245051 5.41320682 458.89338934 C5.43582684 465.1144538 5.45150409 471.33535973 5.4504776 477.55646896 C5.44973133 483.41534509 5.46766956 489.27387068 5.49976158 495.1326561 C5.50826044 497.27959087 5.51001062 499.42656496 5.50439644 501.57350922 C5.49773499 504.5131477 5.51572891 507.45167786 5.53961182 510.39120483 C5.52797119 511.65487084 5.52797119 511.65487084 5.5160954 512.94406545 C5.60723337 519.31464649 7.36000359 524.35997124 10.05859375 530.09765625 C10.39050287 530.83151121 10.722412 531.56536618 11.06437898 532.32145917 C12.34573148 534.61063716 13.72388118 535.00325973 16.05859375 536.09765625 C18.20668546 539.31979382 18.35245528 540.37541026 18.05859375 544.09765625 C17.72859375 544.42765625 17.39859375 544.75765625 17.05859375 545.09765625 C-23.20140625 545.09765625 -63.46140625 545.09765625 -104.94140625 545.09765625 C-104.94140625 419.69765625 -104.94140625 294.29765625 -104.94140625 165.09765625 C-103.8938932 167.19268236 -102.85896563 169.29829486 -101.96875 171.46484375 C-98.41064763 179.65230512 -93.64317214 183.09505226 -85.56640625 186.53515625 C-77.54364455 187.78006755 -69.63711108 186.9391659 -62.94140625 182.09765625 C-54.18322539 174.27422323 -51.68239624 162.4871758 -48.51171875 151.6328125 C-48.08472148 150.18818196 -47.65715948 148.74371824 -47.2290802 147.29940796 C-46.31330034 144.20543205 -45.40132547 141.11037052 -44.49240112 138.01437378 C-43.05106628 133.1049144 -41.60153157 128.19790048 -40.15063477 123.29125977 C-38.63396001 118.16063657 -37.11795061 113.02982061 -35.60493469 107.89811707 C-32.01055687 95.70721078 -28.39854349 83.52164694 -24.7734375 71.33984375 C-24.52388054 70.50116949 -24.27432358 69.66249523 -24.01720428 68.7984066 C-22.78373465 64.65336712 -21.54999951 60.50840673 -20.31610107 56.36349487 C-18.24461465 49.40468925 -16.17471126 42.44541337 -14.10573578 35.48586082 C-13.48150783 33.38665313 -12.85678689 31.28759265 -12.23199463 29.18855286 C-10.55701099 23.55842087 -8.88640535 17.92727675 -7.25048828 12.28564453 C-7.012621 11.46677261 -6.77475372 10.6479007 -6.52967834 9.80421448 C-5.94446472 7.78322374 -5.36369373 5.76094785 -4.78344727 3.73852539 C-3.62984409 0.12051275 -3.62984409 0.12051275 0 0 Z " fill="#FDFDFD" transform="translate(104.94140625,231.90234375)"/>
<path d="M0 0 C4.29 0 8.58 0 13 0 C13.00146656 0.95453001 13.00293312 1.90906002 13.00444412 2.89251518 C13.04106816 26.13749626 13.10055588 49.38233359 13.18390274 72.62719536 C13.22368178 83.86832793 13.25608008 95.10939061 13.27099609 106.35058594 C13.28401844 116.15045494 13.31099815 125.95017009 13.35461307 135.74995244 C13.3772146 140.93703427 13.39291145 146.12392642 13.39188385 151.31106186 C13.39113648 156.19816818 13.40911858 161.0848554 13.44116783 165.97185326 C13.44965289 167.76079712 13.45142626 169.54978806 13.44580269 171.33874321 C13.41676401 182.00054831 13.68369745 191.49428278 20.3125 200.375 C26.17613168 206.10226815 32.02629843 208.12710804 40.125 208.3125 C48.90524635 208.19451237 55.15940791 206.2895068 61.4375 200 C65.65476889 194.89667866 66.95469244 189.43517468 68 183 C68.33 183 68.66 183 69 183 C69 298.5 69 414 69 533 C39.3 533 9.6 533 -21 533 C-18.77487765 526.32463295 -18.77487765 526.32463295 -15.25 524.125 C-6.73587628 518.12501064 -2.84354039 510.18673571 -1 500 C-0.28729211 493.18060987 -0.45193621 486.30184934 -0.48101807 479.45475769 C-0.4751357 477.38113229 -0.46750495 475.30751124 -0.458287 473.23389798 C-0.43809307 467.56240545 -0.44256339 461.891164 -0.45119452 456.21965206 C-0.45614967 450.09368716 -0.43804163 443.96778449 -0.42277527 437.84184265 C-0.39948481 427.23705753 -0.39057443 416.63235087 -0.39188385 406.02754784 C-0.39319583 394.91020632 -0.38623099 383.79292023 -0.36830902 372.67559242 C-0.36719763 371.98331265 -0.36608624 371.29103287 -0.36494118 370.57777492 C-0.35925378 367.06176873 -0.35341944 363.5457628 -0.34752855 360.02975694 C-0.30611099 335.15192345 -0.28310465 310.27410381 -0.27099609 285.39624023 C-0.25919343 261.23378936 -0.23900744 237.07136914 -0.20751953 212.90893555 C-0.20655158 212.16361743 -0.20558363 211.41829932 -0.20458635 210.6503958 C-0.19485619 203.16533069 -0.18495612 195.68026581 -0.17493158 188.19520109 C-0.15451588 172.94843871 -0.13523401 157.70167498 -0.11663818 142.45491028 C-0.11535369 141.40347074 -0.11535369 141.40347074 -0.11404325 140.33079 C-0.05702804 93.55387649 -0.02652296 46.7769397 0 0 Z " fill="#FEFEFE" transform="translate(706,244)"/>
<path d="M0 0 C1.21429688 -0.02578125 2.42859375 -0.0515625 3.6796875 -0.078125 C8.43919905 0.37516181 10.70037554 2.01408223 14.23775727 5.08290005 C17.21446974 10.07830725 16.67130698 15.01097633 16.62557125 20.72047424 C16.63108542 22.00790948 16.63659958 23.29534472 16.64228085 24.62179315 C16.65707318 28.20938528 16.64684474 31.7965429 16.63266886 35.38412158 C16.62164893 39.28175878 16.63376626 43.17933392 16.64297634 47.07696629 C16.65590589 53.91270364 16.65389781 60.74831151 16.64219666 67.58404922 C16.62484449 77.74882815 16.63030204 87.91350485 16.64036357 98.078289 C16.65757714 116.23015723 16.65200104 134.38196516 16.63700638 152.53383216 C16.62396864 168.41856629 16.61875592 184.30327947 16.62132454 200.1880188 C16.62148495 201.24057303 16.62164537 202.29312726 16.62181065 203.37757707 C16.6224742 207.64994426 16.62317661 211.92231144 16.62393599 216.19467861 C16.63096437 256.29512482 16.6154542 296.39553415 16.58931253 336.49597098 C16.56619647 372.14413547 16.56080883 407.7922594 16.57104492 443.44042969 C16.57364681 452.56805927 16.57623178 461.69568885 16.57864285 470.82331848 C16.57894029 471.94694124 16.57923774 473.070564 16.5795442 474.22823594 C16.5871544 503.99144666 16.58075113 533.75465404 16.56994683 563.51786327 C16.56879899 566.71938316 16.56765581 569.92090304 16.56652 573.12242293 C16.56576475 575.24634109 16.56499911 577.37025925 16.56422299 579.49417741 C16.55855799 595.37121331 16.55989912 611.24823872 16.56445122 627.12527466 C16.56955211 645.17323296 16.56373687 663.22115195 16.54355692 681.26910043 C16.53254634 691.37722124 16.52979976 701.4852648 16.53884545 711.59338801 C16.54404777 718.33739214 16.53841196 725.0813299 16.52379211 731.82532008 C16.51575358 735.67303616 16.51252405 739.52059559 16.52236467 743.36831105 C16.53282573 747.50551945 16.52029146 751.64233146 16.50531673 755.77952576 C16.51542321 757.5866331 16.51542321 757.5866331 16.52573386 759.43024766 C16.51796708 760.52960008 16.5102003 761.62895249 16.50219816 762.76161861 C16.50177114 763.70808221 16.50134413 764.6545458 16.50090417 765.62969011 C15.92115341 769.67095055 14.16891781 772.33657191 11.125 775 C5.94265313 778.23896679 0.0197189 777.67160903 -5.875 777.25 C-10.13084865 775.88204865 -12.61931908 774.08447641 -15.03902704 770.28915948 C-16.92180202 765.69657259 -16.41482108 760.55470524 -16.37557125 755.6720953 C-16.38108542 754.38519459 -16.38659958 753.09829388 -16.39228085 751.77239618 C-16.4070545 748.1909647 -16.39685567 744.60996932 -16.38266886 741.02855143 C-16.3716386 737.13585487 -16.38376971 733.24322005 -16.39297634 729.3505283 C-16.40589963 722.52501598 -16.40390273 715.69963338 -16.39219666 708.87412071 C-16.37483724 698.72456235 -16.38030473 688.57510631 -16.39036357 678.42554271 C-16.4075729 660.30064282 -16.40200378 642.17580333 -16.38700638 624.05090468 C-16.37396677 608.19035985 -16.36875628 592.329836 -16.37132454 576.46928596 C-16.37148495 575.41818682 -16.37164537 574.36708768 -16.37181065 573.28413704 C-16.37247421 569.01764812 -16.37317661 564.75115921 -16.37393599 560.4846703 C-16.38096361 520.44350566 -16.36545653 480.40237796 -16.33931253 440.36122272 C-16.31619496 404.76660107 -16.31080953 369.17202004 -16.32104492 333.57739258 C-16.32364681 324.46283438 -16.32623179 315.34827617 -16.32864285 306.23371792 C-16.32894029 305.11169981 -16.32923774 303.98968171 -16.3295442 302.83366305 C-16.33715432 273.11325157 -16.33075124 243.39284343 -16.31994683 213.67243344 C-16.31879899 210.47556087 -16.31765581 207.2786883 -16.31652 204.08181572 C-16.31576475 201.9609896 -16.31499911 199.84016348 -16.31422299 197.71933737 C-16.30855813 181.86587614 -16.30989901 166.01242542 -16.31445122 150.15896416 C-16.31955205 132.13847842 -16.31373706 114.11803206 -16.29355692 96.09755617 C-16.28254641 86.00498269 -16.27979971 75.91248659 -16.28884545 65.8199107 C-16.29404778 59.08630542 -16.28841194 52.35276662 -16.27379211 45.61917531 C-16.26575363 41.77741614 -16.26252397 37.93581388 -16.27236467 34.09405535 C-16.28282583 29.96325438 -16.27029139 25.83285041 -16.25531673 21.70206356 C-16.26205439 20.49921552 -16.26879204 19.29636749 -16.27573386 18.05706951 C-16.26796708 16.95940674 -16.2602003 15.86174397 -16.25219816 14.73081869 C-16.25177114 13.78582668 -16.25134413 12.84083467 -16.25090417 11.86720654 C-15.62257036 7.49247625 -13.24415645 4.05763037 -9.875 1.25 C-6.42834258 0.10111419 -3.63148095 0.0460653 0 0 Z " fill="#282828" transform="translate(411.875,-0.25)"/>
<path d="M0 0 C14.24536914 11.96520705 22.46867818 28.19454043 24.1875 46.671875 C24.90100996 66.38258763 17.11407279 83.10492995 3.92578125 97.4296875 C-2.68120893 103.89824551 -10.72734895 107.68785389 -19.125 111.3125 C-20.01703125 111.69792969 -20.9090625 112.08335938 -21.828125 112.48046875 C-34.93851189 116.98452102 -52.62023082 115.89973729 -65.125 110.3125 C-66.1975 109.838125 -67.27 109.36375 -68.375 108.875 C-83.95928082 101.22988111 -95.64513222 88.66475839 -101.47094727 72.28027344 C-107.28230303 54.79631394 -106.16692859 37.64303148 -98.4375 21 C-89.67692409 4.81818435 -76.16344711 -5.40904389 -59.1953125 -11.7890625 C-38.57030945 -17.90229055 -16.88994831 -12.66746124 0 0 Z " fill="#282828" transform="translate(665.125,14.6875)"/>
<path d="M0 0 C12.79530021 10.25866771 21.68965907 24.51449883 24.38525391 40.78369141 C26.31444271 59.81729463 21.94357966 75.70165616 10.61572266 91.20556641 C0.28502783 103.81988851 -15.43981901 112.034403 -31.61474609 113.78369141 C-48.37015831 115.12660361 -64.66120072 110.95610655 -77.84130859 100.23681641 C-92.61307868 87.57821435 -100.00678663 72.19368871 -101.89990234 52.87353516 C-102.43006996 37.22206522 -96.99005474 23.0168244 -87.61474609 10.78369141 C-86.97279297 9.94193359 -86.33083984 9.10017578 -85.66943359 8.23291016 C-64.78740436 -16.65878629 -25.31926665 -19.07175483 0 0 Z " fill="#282828" transform="translate(216.61474609375,13.21630859375)"/>
<path d="M0 0 C14.52 0 29.04 0 44 0 C42 3 42 3 40 5 C37.828125 4.79296875 37.828125 4.79296875 35.25 4.1875 C28.38600592 2.61888786 22.02975516 1.84019923 15 1.875 C14.21882812 1.87113281 13.43765625 1.86726562 12.6328125 1.86328125 C8.31007169 1.87055859 4.25643155 2.14052825 0 3 C0 2.01 0 1.02 0 0 Z " fill="#F8F8F8" transform="translate(609,0)"/>
<path d="M0 0 C1.64510941 0.00015915 3.29022379 0.00585551 4.93530273 0.01586914 C6.23164894 0.01799156 6.23164894 0.01799156 7.55418396 0.02015686 C10.32578941 0.025773 13.09731528 0.0383282 15.86889648 0.05102539 C17.74324428 0.05603831 19.61759334 0.06060158 21.49194336 0.06469727 C26.09679192 0.07574767 30.70158069 0.09302309 35.30639648 0.11352539 C35.30639648 1.43352539 35.30639648 2.75352539 35.30639648 4.11352539 C34.70956055 3.96915039 34.11272461 3.82477539 33.49780273 3.67602539 C21.23159419 1.05145774 8.50468454 1.16275161 -3.69360352 4.11352539 C-4.02360352 3.12352539 -4.35360352 2.13352539 -4.69360352 1.11352539 C-3.69360352 0.11352539 -3.69360352 0.11352539 0 0 Z " fill="#F7F7F7" transform="translate(162.693603515625,-0.113525390625)"/>
<path d="M0 0 C0.33 0 0.66 0 1 0 C1 6.27 1 12.54 1 19 C-0.65 18.67 -2.3 18.34 -4 18 C-5.85717906 18.92791208 -5.85717906 18.92791208 -7.3125 20.4375 C-8.199375 21.283125 -9.08625 22.12875 -10 23 C-10 20 -10 20 -8.57421875 18.37890625 C-7.64029297 17.47978516 -7.64029297 17.47978516 -6.6875 16.5625 C-2.18042771 11.68135896 -1.12186941 6.41068233 0 0 Z M-13 22 C-12.34 22.33 -11.68 22.66 -11 23 C-11 23.99 -11 24.98 -11 26 C-11.66 26 -12.32 26 -13 26 C-13 25.34 -13 24.68 -13 24 C-13.66 23.67 -14.32 23.34 -15 23 C-14.34 22.67 -13.68 22.34 -13 22 Z " fill="#F0F0F0" transform="translate(774,427)"/>
<path d="M0 0 C3.67420866 0.30618405 4.78135513 0.75771784 7.3125 3.5625 C8.1478125 4.7690625 8.1478125 4.7690625 9 6 C10.32 5.67 11.64 5.34 13 5 C13.12375 5.5775 13.2475 6.155 13.375 6.75 C14.00648824 9.02335767 14.88858191 10.9253529 16 13 C10.08187733 11.6684224 6.07073254 8.34578204 2 4 C0.765625 1.7734375 0.765625 1.7734375 0 0 Z " fill="#303030" transform="translate(722,439)"/>
<path d="M0 0 C0.66 0 1.32 0 2 0 C2 0.66 2 1.32 2 2 C2.99 2 3.98 2 5 2 C5 9.59 5 17.18 5 25 C4.67 25 4.34 25 4 25 C3.87882813 24.11699219 3.75765625 23.23398438 3.6328125 22.32421875 C2.58866891 14.84654428 1.42250087 7.41516409 0 0 Z " fill="#F5F5F5" transform="translate(770,199)"/>
<path d="M0 0 C0.77601563 0.26425781 1.55203125 0.52851562 2.3515625 0.80078125 C4.375 1.6875 4.375 1.6875 6.375 3.6875 C6.375 4.3475 6.375 5.0075 6.375 5.6875 C0.50690493 5.16356294 -4.17373741 3.92641142 -9.625 1.6875 C-8.625 -0.3125 -8.625 -0.3125 -6.8515625 -1.01953125 C-4.16712888 -1.3727462 -2.54366482 -0.89751384 0 0 Z " fill="#2B2B2B" transform="translate(571.625,770.3125)"/>
<path d="M0 0 C0.66 0.33 1.32 0.66 2 1 C2 3.97 2 6.94 2 10 C1.01 10.495 1.01 10.495 0 11 C-0.66 10.34 -1.32 9.68 -2 9 C-2.66 9 -3.32 9 -4 9 C-3.71848913 7.68528432 -3.42446661 6.37324233 -3.125 5.0625 C-2.96257812 4.33160156 -2.80015625 3.60070312 -2.6328125 2.84765625 C-2 1 -2 1 0 0 Z " fill="#2F2F2F" transform="translate(108,261)"/>
<path d="M0 0 C0.66 1.32 1.32 2.64 2 4 C1.01 5.32 0.02 6.64 -1 8 C-0.34 8.33 0.32 8.66 1 9 C0.34 9.66 -0.32 10.32 -1 11 C-3 10 -3 10 -3.6328125 8.15234375 C-3.79523438 7.42144531 -3.95765625 6.69054687 -4.125 5.9375 C-4.29257812 5.20402344 -4.46015625 4.47054688 -4.6328125 3.71484375 C-4.75398438 3.14894531 -4.87515625 2.58304687 -5 2 C-3.35 1.34 -1.7 0.68 0 0 Z " fill="#303030" transform="translate(293,345)"/>
<path d="M0 0 C-0.9375 2 -0.9375 2 -3 4 C-6.0368922 4.47833833 -8.96489411 4.49529242 -12 4 C-12.66 3.34 -13.32 2.68 -14 2 C-12.23225581 1.46877637 -10.46065917 0.95035927 -8.6875 0.4375 C-7.70136719 0.14746094 -6.71523438 -0.14257812 -5.69921875 -0.44140625 C-3 -1 -3 -1 0 0 Z " fill="#F7F7F7" transform="translate(688,773)"/>
<path d="M0 0 C1.32 0.33 2.64 0.66 4 1 C3.42365861 5.75481646 1.44931479 8.97048212 -1 13 C-1.33 13 -1.66 13 -2 13 C-1.85851011 11.3954444 -1.71164314 9.79136233 -1.5625 8.1875 C-1.48128906 7.29417969 -1.40007813 6.40085937 -1.31640625 5.48046875 C-1 3 -1 3 0 0 Z " fill="#2F2F2F" transform="translate(563,45)"/>
<path d="M0 0 C1.9375 0.6875 1.9375 0.6875 4 2 C4.6875 4.5 4.6875 4.5 5 7 C5.33 7.66 5.66 8.32 6 9 C6 9.99 6 10.98 6 12 C5.01 12.33 4.02 12.66 3 13 C2.49487756 11.39743892 1.99608373 9.79288208 1.5 8.1875 C1.2215625 7.29417969 0.943125 6.40085938 0.65625 5.48046875 C0 3 0 3 0 0 Z " fill="#323232" transform="translate(257,241)"/>
<path d="M0 0 C0.99 1.32 1.98 2.64 3 4 C2.4375 7.125 2.4375 7.125 1 10 C-0.98 10.99 -0.98 10.99 -3 12 C-2.01 8.04 -1.02 4.08 0 0 Z M3 3 C5 4 5 4 5 4 Z " fill="#323232" transform="translate(50,221)"/>
<path d="M0 0 C0.66 0.99 1.32 1.98 2 3 C1.67 3.66 1.34 4.32 1 5 C1.66 5 2.32 5 3 5 C3.33 6.32 3.66 7.64 4 9 C3.34 9 2.68 9 2 9 C1.67 9.66 1.34 10.32 1 11 C0.01 10.67 -0.98 10.34 -2 10 C-1.34 6.7 -0.68 3.4 0 0 Z " fill="#2F2F2F" transform="translate(58,428)"/>
<path d="M0 0 C0.66 0 1.32 0 2 0 C3.15837626 4.05431692 2.83691257 6.21812119 1 10 C-0.32 9.01 -1.64 8.02 -3 7 C-2.01 4.69 -1.02 2.38 0 0 Z " fill="#2F2F2F" transform="translate(60,191)"/>
<path d="M0 0 C1.32 0 2.64 0 4 0 C4.33 0.99 4.66 1.98 5 3 C1.17679443 4.42258812 -1.91281305 5.24042276 -6 5 C-6 4.01 -6 3.02 -6 2 C-4.02 1.67 -2.04 1.34 0 1 C0 0.67 0 0.34 0 0 Z " fill="#2E2E2E" transform="translate(591,770)"/>
<path d="M0 0 C0.33 0.66 0.66 1.32 1 2 C1.99 2.33 2.98 2.66 4 3 C4.73046875 4.84765625 4.73046875 4.84765625 5.1875 7.0625 C5.34605469 7.79597656 5.50460937 8.52945312 5.66796875 9.28515625 C5.83232422 10.13400391 5.83232422 10.13400391 6 11 C3.13275314 10.42655063 2.1385485 10.1385485 0 8 C-0.26991906 5.31160615 -0.08737357 2.70858064 0 0 Z " fill="#2E2E2E" transform="translate(273,356)"/>
<path d="M0 0 C1.875 0.125 1.875 0.125 4 1 C5.25 4.0625 5.25 4.0625 6 7 C3.69 7.66 1.38 8.32 -1 9 C-0.835 8.38125 -0.67 7.7625 -0.5 7.125 C0.07634644 5.03936614 0.07634644 5.03936614 0 3 C0 2.01 0 1.02 0 0 Z " fill="#303030" transform="translate(290,187)"/>
<path d="M0 0 C2.97 0.33 5.94 0.66 9 1 C8.67 2.65 8.34 4.3 8 6 C2.25 4.25 2.25 4.25 0 2 C0 1.34 0 0.68 0 0 Z " fill="#2F2F2F" transform="translate(634,2)"/>
<path d="M0 0 C0.66 0.33 1.32 0.66 2 1 C2.625 3.0625 2.625 3.0625 3 5 C3.66 4.01 4.32 3.02 5 2 C5.66 3.32 6.32 4.64 7 6 C4.525 7.485 4.525 7.485 2 9 C0.4375 6.1875 0.4375 6.1875 -1 3 C-0.67 2.01 -0.34 1.02 0 0 Z " fill="#303030" transform="translate(513,441)"/>
<path d="M0 0 C0.33 0.66 0.66 1.32 1 2 C0 5 0 5 -2.16796875 6.1796875 C-5.35509512 7.10285514 -8.00048884 7.19779145 -11.3125 7.125 C-12.38113281 7.10695313 -13.44976562 7.08890625 -14.55078125 7.0703125 C-15.35902344 7.04710937 -16.16726563 7.02390625 -17 7 C-17 6.67 -17 6.34 -17 6 C-13.37 6 -9.74 6 -6 6 C-6 5.34 -6 4.68 -6 4 C-5.38125 3.896875 -4.7625 3.79375 -4.125 3.6875 C-1.63473516 3.12474627 -1.63473516 3.12474627 0 0 Z " fill="#3B3B3B" transform="translate(423,770)"/>
<path d="M0 0 C-0.66 2.64 -1.32 5.28 -2 8 C-2.99 7.01 -3.98 6.02 -5 5 C-5.33 5.66 -5.66 6.32 -6 7 C-6.66 6.67 -7.32 6.34 -8 6 C-7.67 4.68 -7.34 3.36 -7 2 C-6.67 2.66 -6.34 3.32 -6 4 C-5.38125 3.34 -4.7625 2.68 -4.125 2 C-2 0 -2 0 0 0 Z " fill="#2F2F2F" transform="translate(73,329)"/>
<path d="M0 0 C0.66 0.99 1.32 1.98 2 3 C1.67 3.99 1.34 4.98 1 6 C-1.9375 7.25 -1.9375 7.25 -5 8 C-5.66 7.67 -6.32 7.34 -7 7 C-4.66666667 4.66666667 -2.33333333 2.33333333 0 0 Z " fill="#F5F5F5" transform="translate(244,759)"/>
<path d="M0 0 C0.66 0.33 1.32 0.66 2 1 C1.49396008 3.16874252 1.00016187 4.99967627 0 7 C0.66 7 1.32 7 2 7 C1.67 7.99 1.34 8.98 1 10 C-0.32 8.68 -1.64 7.36 -3 6 C-1.125 1.125 -1.125 1.125 0 0 Z " fill="#2F2F2F" transform="translate(573,26)"/>
<path d="M0 0 C0.66 0.33 1.32 0.66 2 1 C2 2.65 2 4.3 2 6 C0.865625 6.12375 -0.26875 6.2475 -1.4375 6.375 C-3.2009375 6.684375 -3.2009375 6.684375 -5 7 C-5.33 7.66 -5.66 8.32 -6 9 C-6 6 -6 6 -4.5 4.4375 C-4.005 3.963125 -3.51 3.48875 -3 3 C-3 2.34 -3 1.68 -3 1 C-2.01 0.67 -1.02 0.34 0 0 Z " fill="#2E2E2E" transform="translate(405,0)"/>
<path d="M0 0 C0.99 0.33 1.98 0.66 3 1 C3.73046875 3.06640625 3.73046875 3.06640625 4.1875 5.5625 C4.34605469 6.38878906 4.50460937 7.21507812 4.66796875 8.06640625 C4.77753906 8.70449219 4.88710938 9.34257812 5 10 C2 9 2 9 0.8125 6.6875 C0 4 0 4 0 0 Z " fill="#2F2F2F" transform="translate(266,331)"/>
<path d="M0 0 C2.0625 0.4375 2.0625 0.4375 4 1 C3.01 1.495 3.01 1.495 2 2 C2.33 3.32 2.66 4.64 3 6 C1.35 6.66 -0.3 7.32 -2 8 C-1.125 1.125 -1.125 1.125 0 0 Z " fill="#323232" transform="translate(34,276)"/>
<path d="M0 0 C0.99 0.33 1.98 0.66 3 1 C3 2.32 3 3.64 3 5 C2.01 5 1.02 5 0 5 C0 5.99 0 6.98 0 8 C-1.32 7.67 -2.64 7.34 -4 7 C-2.68 4.69 -1.36 2.38 0 0 Z " fill="#323232" transform="translate(125,29)"/>
<path d="M0 0 C1.8871875 0.061875 1.8871875 0.061875 3.8125 0.125 C3.8125 1.445 3.8125 2.765 3.8125 4.125 C0.1825 3.465 -3.4475 2.805 -7.1875 2.125 C-4.09861478 0.06574319 -3.47814073 -0.1140374 0 0 Z " fill="#EEEEEE" transform="translate(194.1875,-0.125)"/>
<path d="M0 0 C0.66 0.33 1.32 0.66 2 1 C2.73075648 3.3140622 3.40138258 5.64828869 4 8 C2.68 8.33 1.36 8.66 0 9 C-2 3.25 -2 3.25 -2 1 C-1.34 0.67 -0.68 0.34 0 0 Z " fill="#313131" transform="translate(316,261)"/>
<path d="M0 0 C1.98 0 3.96 0 6 0 C6.33 1.32 6.66 2.64 7 4 C4.36 3.67 1.72 3.34 -1 3 C-0.67 2.01 -0.34 1.02 0 0 Z " fill="#363636" transform="translate(571,772)"/>
<path d="M0 0 C0.33 0.66 0.66 1.32 1 2 C1.66 2 2.32 2 3 2 C1.92598892 4.91517292 1.22189824 6.77810176 -1 9 C-1.625 6.1875 -1.625 6.1875 -2 3 C-1.34 2.01 -0.68 1.02 0 0 Z " fill="#2F2F2F" transform="translate(634,744)"/>
<path d="M0 0 C0.66 1.32 1.32 2.64 2 4 C0.35 5.98 -1.3 7.96 -3 10 C-4 8 -4 8 -3.1875 4.4375 C-2 1 -2 1 0 0 Z " fill="#363636" transform="translate(77,368)"/>
<path d="M0 0 C0.99 0.66 1.98 1.32 3 2 C2.67 2.99 2.34 3.98 2 5 C0.125 5.625 0.125 5.625 -2 6 C-2.99 6.33 -3.98 6.66 -5 7 C-3.70700306 4.11562221 -2.34058637 2.12780579 0 0 Z " fill="#303030" transform="translate(498,167)"/>
<path d="M0 0 C0.33 0.99 0.66 1.98 1 3 C0.071875 3.185625 0.071875 3.185625 -0.875 3.375 C-3.19120832 3.87197356 -3.19120832 3.87197356 -5 6 C-5.66 5.34 -6.32 4.68 -7 4 C-7 3.01 -7 2.02 -7 1 C-4.53721199 -0.231394 -2.7204945 -0.07159196 0 0 Z " fill="#212121" transform="translate(272,162)"/>
<path d="M0 0 C2.31 1.65 4.62 3.3 7 5 C6.34 5.66 5.68 6.32 5 7 C2.5625 6.1875 2.5625 6.1875 0 5 C-0.33 4.01 -0.66 3.02 -1 2 C-0.67 1.34 -0.34 0.68 0 0 Z " fill="#2F2F2F" transform="translate(738,158)"/>
<path d="M0 0 C3.465 1.485 3.465 1.485 7 3 C7 3.99 7 4.98 7 6 C6.236875 5.835 5.47375 5.67 4.6875 5.5 C1.96403764 4.90854604 1.96403764 4.90854604 -1 5 C-0.67 3.35 -0.34 1.7 0 0 Z " fill="#2F2F2F" transform="translate(650,6)"/>
<path d="M0 0 C0.77321882 2.98241547 1.41196203 5.97580475 2 9 C0.68 8.67 -0.64 8.34 -2 8 C-1.125 1.125 -1.125 1.125 0 0 Z " fill="#303030" transform="translate(97,295)"/>
<path d="M0 0 C2 1 2 1 4 3 C2.75 4.5625 2.75 4.5625 1 6 C-1.1875 5.6875 -1.1875 5.6875 -3 5 C-1.125 1.125 -1.125 1.125 0 0 Z " fill="#2F2F2F" transform="translate(75,169)"/>
<path d="M0 0 C2.97 0 5.94 0 9 0 C7.35 1.32 5.7 2.64 4 4 C1.525 3.01 1.525 3.01 -1 2 C-0.67 1.34 -0.34 0.68 0 0 Z " fill="#F0F0F0" transform="translate(396,0)"/>
<path d="M0 0 C1.68426809 3.25530808 2.88786134 6.50470706 4 10 C3.01 10.33 2.02 10.66 1 11 C-0 10 -0 10 -0.09765625 7.71484375 C-0.08605469 6.79832031 -0.07445312 5.88179688 -0.0625 4.9375 C-0.05347656 4.01839844 -0.04445312 3.09929687 -0.03515625 2.15234375 C-0.02355469 1.44207031 -0.01195312 0.73179687 0 0 Z " fill="#EEEEEE" transform="translate(0,397)"/>
<path d="M0 0 C0.66 0.33 1.32 0.66 2 1 C1.01 2.32 0.02 3.64 -1 5 C-1.99 4.67 -2.98 4.34 -4 4 C-4.33 4.66 -4.66 5.32 -5 6 C-5.66 5.34 -6.32 4.68 -7 4 C-1.7265625 0.77734375 -1.7265625 0.77734375 0 0 Z " fill="#323232" transform="translate(598,6)"/>
<path d="M0 0 C0.33 0.99 0.66 1.98 1 3 C-0.3125 4.5 -0.3125 4.5 -2 6 C-2.99 6 -3.98 6 -5 6 C-5.33 4.68 -5.66 3.36 -6 2 C-5.01 2 -4.02 2 -3 2 C-2.01 1.34 -1.02 0.68 0 0 Z " fill="#2F2F2F" transform="translate(346,410)"/>
<path d="M0 0 C0.66 0.33 1.32 0.66 2 1 C1.67 2.32 1.34 3.64 1 5 C-0.32 5 -1.64 5 -3 5 C-3 3.68 -3 2.36 -3 1 C-2.01 0.67 -1.02 0.34 0 0 Z " fill="#2F2F2F" transform="translate(5,378)"/>
<path d="M0 0 C2 3 2 3 1.625 5.1875 C1.41875 5.785625 1.2125 6.38375 1 7 C-0.65 7.33 -2.3 7.66 -4 8 C-4 7.34 -4 6.68 -4 6 C-3 5 -2 4 -1 3 C-0.67 2.01 -0.34 1.02 0 0 Z " fill="#303030" transform="translate(342,344)"/>
<path d="M0 0 C0.33 1.98 0.66 3.96 1 6 C-0.65 5.67 -2.3 5.34 -4 5 C-4.33 3.68 -4.66 2.36 -5 1 C-1.125 0 -1.125 0 0 0 Z " fill="#222222" transform="translate(599,9)"/>
<path d="M0 0 C0 0.99 0 1.98 0 3 C-2.64 3 -5.28 3 -8 3 C-7.67 2.01 -7.34 1.02 -7 0 C-4.05610218 -1.17755913 -3.10046087 -1.03348696 0 0 Z " fill="#2F2F2F" transform="translate(613,3)"/>
<path d="M0 0 C0.33 0.99 0.66 1.98 1 3 C0.01 3.66 -0.98 4.32 -2 5 C-2.99 4.01 -3.98 3.02 -5 2 C-5.33 2.66 -5.66 3.32 -6 4 C-6 3.01 -6 2.02 -6 1 C-4 0 -4 0 0 0 Z " fill="#212121" transform="translate(767,441)"/>
<path d="M0 0 C0.66 0.66 1.32 1.32 2 2 C1.67 2.99 1.34 3.98 1 5 C1.38932856 7.14255793 1.38932856 7.14255793 2 9 C1.01 9.495 1.01 9.495 0 10 C-0.66 7.03 -1.32 4.06 -2 1 C-1.34 0.67 -0.68 0.34 0 0 Z " fill="#303030" transform="translate(277,301)"/>
<path d="M0 0 C0.93423645 3.01031744 1.04449911 3.86650268 0 7 C-0.99 7 -1.98 7 -3 7 C-3.1875 4.625 -3.1875 4.625 -3 2 C-2.01 1.34 -1.02 0.68 0 0 Z " fill="#323232" transform="translate(100,233)"/>
<path d="M0 0 C-0.33 1.65 -0.66 3.3 -1 5 C-2.9375 4.6875 -2.9375 4.6875 -5 4 C-5.33 3.01 -5.66 2.02 -6 1 C-3.92446352 0.4465236 -2.15634036 0 0 0 Z " fill="#303030" transform="translate(660,770)"/>
<path d="M0 0 C1.32 0.33 2.64 0.66 4 1 C3.01 2.98 2.02 4.96 1 7 C0.01 6.01 -0.98 5.02 -2 4 C-1.33333333 2.66666667 -0.66666667 1.33333333 0 0 Z " fill="#313131" transform="translate(164,754)"/>
<path d="M0 0 C-0.33 2.31 -0.66 4.62 -1 7 C-3 6 -3 6 -4 3 C-4.66 2.34 -5.32 1.68 -6 1 C-1.125 0 -1.125 0 0 0 Z " fill="#343434" transform="translate(528,432)"/>
<path d="M0 0 C0.99 0.33 1.98 0.66 3 1 C2.01 1.33 1.02 1.66 0 2 C0 1.34 0 0.68 0 0 Z M-2 2 C0.475 2.99 0.475 2.99 3 4 C2.01 4.495 2.01 4.495 1 5 C1 5.66 1 6.32 1 7 C0.34 7 -0.32 7 -1 7 C-1.33 5.35 -1.66 3.7 -2 2 Z " fill="#F8F8F8" transform="translate(348,353)"/>
<path d="M0 0 C3.375 -0.1875 3.375 -0.1875 7 0 C7.66 0.99 8.32 1.98 9 3 C5.7 2.67 2.4 2.34 -1 2 C-0.67 1.34 -0.34 0.68 0 0 Z " fill="#343434" transform="translate(162,123)"/>
<path d="M0 0 C1.9375 0.375 1.9375 0.375 4 1 C4.33 1.66 4.66 2.32 5 3 C4.34 3.66 3.68 4.32 3 5 C2.67 5.66 2.34 6.32 2 7 C1.34 6.67 0.68 6.34 0 6 C0 4.02 0 2.04 0 0 Z " fill="#212121" transform="translate(147,113)"/>
<path d="M0 0 C0.99 0.33 1.98 0.66 3 1 C3.6875 3.0625 3.6875 3.0625 4 5 C3.01 5.495 3.01 5.495 2 6 C1.01 5.01 0.02 4.02 -1 3 C-0.67 2.01 -0.34 1.02 0 0 Z " fill="#2E2E2E" transform="translate(12,411)"/>
<path d="M0 0 C2.97 0.495 2.97 0.495 6 1 C6 1.66 6 2.32 6 3 C3.21216865 3.74342169 0.87722583 4 -2 4 C-1.34 2.68 -0.68 1.36 0 0 Z " fill="#323232" transform="translate(489,178)"/>
<path d="M0 0 C1.32 0.66 2.64 1.32 4 2 C3.34 3.32 2.68 4.64 2 6 C1.01 5.01 0.02 4.02 -1 3 C-0.67 2.01 -0.34 1.02 0 0 Z " fill="#F6F6F6" transform="translate(283,169)"/>
<path d="M0 0 C0.103125 0.598125 0.20625 1.19625 0.3125 1.8125 C1.08876455 4.28243264 2.07088921 5.32251235 4 7 C2.35 7 0.7 7 -1 7 C-1.625 4.625 -1.625 4.625 -2 2 C-1.34 1.34 -0.68 0.68 0 0 Z " fill="#2F2F2F" transform="translate(507,159)"/>
</svg>
