<svg width="23" height="17" viewBox="0 0 23 17" fill="none" xmlns="http://www.w3.org/2000/svg">
    <path fill-rule="evenodd" clip-rule="evenodd"
        d="M17.2164 14.4037V7.88196H14.1429C12.8402 8.10453 11.5375 8.77932 10.2349 9.56187H7.84786C6.76724 9.62369 6.20102 10.6694 7.25204 11.3566C8.08841 11.9431 9.1931 11.9095 10.3255 11.8123C11.1064 11.7752 11.1397 12.7768 10.3255 12.7804C10.0424 12.8016 9.73526 12.738 9.46695 12.738C8.05326 12.7362 6.89121 12.4783 6.17881 11.4131L5.82169 10.6164L2.27079 8.93654C0.49442 8.37833 -0.769395 10.1519 0.54068 11.3866C3.11272 13.1725 5.74952 14.6422 8.44739 15.8293C10.4069 16.9669 12.3665 16.928 14.3242 15.8293L17.2164 14.4037ZM6.36015 2.80868V0H11.0176V2.82281H13.2695L8.67314 7.98088L4.06197 2.80868H6.36015ZM22.7361 7.25486H18.1416V15.0591H22.7361V7.25486Z"
        fill="#2C2C31" />
</svg>