<?xml version="1.0" standalone="no"?>
<!DOCTYPE svg PUBLIC "-//W3C//DTD SVG 20010904//EN"
 "http://www.w3.org/TR/2001/REC-SVG-20010904/DTD/svg10.dtd">
<svg version="1.0" xmlns="http://www.w3.org/2000/svg"
 width="64.000000pt" height="64.000000pt" viewBox="0 0 64.000000 64.000000"
 preserveAspectRatio="xMidYMid meet">

<g transform="translate(0.000000,64.000000) scale(0.100000,-0.100000)"
fill="#000000" stroke="none">
<path d="M170 320 l0 -321 63 3 62 3 0 315 0 315 -62 3 -63 3 0 -321z"/>
<path d="M0 240 l0 -240 60 0 60 0 0 240 0 240 -60 0 -60 0 0 -240z"/>
<path d="M350 160 l0 -160 60 0 60 0 0 160 0 160 -60 0 -60 0 0 -160z"/>
<path d="M520 80 l0 -80 60 0 60 0 0 80 0 80 -60 0 -60 0 0 -80z"/>
</g>
</svg>
