<svg width="33" height="31" viewBox="0 0 33 31" fill="none" xmlns="http://www.w3.org/2000/svg">
<path fill-rule="evenodd" clip-rule="evenodd" d="M15.8633 27.2162C10.9189 27.2162 6.69653 26.4944 6.69653 23.6037C6.69653 20.713 10.8921 18.0444 15.8633 18.0444C20.8077 18.0444 25.0301 20.6871 25.0301 23.5778C25.0301 26.4674 20.8345 27.2162 15.8633 27.2162Z" stroke="#666666" stroke-width="2" stroke-linecap="round" stroke-linejoin="round"/>
<path fill-rule="evenodd" clip-rule="evenodd" d="M15.8536 14.0387C19.0984 14.0387 21.7282 11.5715 21.7282 8.5276C21.7282 5.48366 19.0984 3.01538 15.8536 3.01538C12.6089 3.01538 9.97782 5.48366 9.97782 8.5276C9.96686 11.5613 12.5785 14.0284 15.8122 14.0387C15.8268 14.0387 15.8402 14.0387 15.8536 14.0387Z" stroke="#666666" stroke-width="2" stroke-linecap="round" stroke-linejoin="round"/>
</svg>
