<svg width="33" height="31" viewBox="0 0 33 31" fill="none" xmlns="http://www.w3.org/2000/svg">
<path fill-rule="evenodd" clip-rule="evenodd" d="M15.8632 27.2162C10.9188 27.2162 6.69641 26.4944 6.69641 23.6037C6.69641 20.713 10.892 18.0444 15.8632 18.0444C20.8076 18.0444 25.03 20.6871 25.03 23.5778C25.03 26.4674 20.8344 27.2162 15.8632 27.2162Z" stroke="#2C2C31" stroke-width="2" stroke-linecap="round" stroke-linejoin="round"/>
<path fill-rule="evenodd" clip-rule="evenodd" d="M15.8535 14.0387C19.0982 14.0387 21.7281 11.5715 21.7281 8.5276C21.7281 5.48366 19.0982 3.01538 15.8535 3.01538C12.6088 3.01538 9.9777 5.48366 9.9777 8.5276C9.96674 11.5613 12.5783 14.0284 15.8121 14.0387C15.8267 14.0387 15.8401 14.0387 15.8535 14.0387Z" stroke="#2C2C31" stroke-width="2" stroke-linecap="round" stroke-linejoin="round"/>
</svg>
